<?xml version="1.0" standalone="no"?>
<!DOCTYPE svg PUBLIC "-//W3C//DTD SVG 20010904//EN"
 "http://www.w3.org/TR/2001/REC-SVG-20010904/DTD/svg10.dtd">
<svg version="1.0" xmlns="http://www.w3.org/2000/svg"
 width="260.000000pt" height="260.000000pt" viewBox="0 0 260.000000 260.000000"
 preserveAspectRatio="xMidYMid meet">
<metadata>
Created by potrace 1.11, written by Peter Selinger 2001-2013
</metadata>
<g transform="translate(0.000000,260.000000) scale(0.100000,-0.100000)"
fill="#000000" stroke="none">
<path d="M1120 2589 c-25 -5 -58 -11 -75 -14 -62 -11 -115 -24 -140 -35 -11
-5 -31 -12 -45 -16 -50 -14 -197 -88 -275 -139 -259 -169 -470 -461 -542 -750
-12 -49 -23 -104 -30 -150 -10 -62 -10 -327 0 -375 4 -19 10 -53 13 -75 11
-71 63 -217 114 -320 182 -368 542 -631 955 -699 115 -19 355 -15 463 8 436
92 791 392 955 806 30 76 64 201 74 274 15 104 7 392 -11 447 -3 8 -7 28 -9
44 -8 57 -58 190 -108 291 -54 109 -152 245 -240 334 -167 169 -440 315 -664
355 -22 4 -51 10 -65 12 -45 9 -324 10 -370 2z"/>
</g>
</svg>
