<?xml version="1.0" ?><svg viewBox="0 0 256 256" xmlns="http://www.w3.org/2000/svg"><defs><style>.cls-1{fill:#a4ecff;}.cls-2{fill:#6dd0fc;}.cls-3{fill:#f97171;}.cls-4{fill:#f88;}.cls-5{fill:#2fb1ea;}.cls-6{fill:#cbecf9;}.cls-7{fill:#fff;}.cls-8{fill:#90fc95;}.cls-9{fill:#d4ffd4;}.cls-10{fill:#ffbdbd;}.cls-11{fill:#bbf1ff;}.cls-12{fill:#fff4c5;}</style></defs><title/><g data-name="Layer 2" id="Layer_2"><path class="cls-1" d="M177.46,220.67,128,156.8,78.54,220.67A6,6,0,0,1,69,213.33l54.21-70a6,6,0,0,1,9.49,0l54.21,70a6,6,0,1,1-9.49,7.35Z"/><path class="cls-1" d="M128,213a6,6,0,0,1-6-6V147a6,6,0,0,1,12,0v60A6,6,0,0,1,128,213Z"/><polygon class="cls-2" points="134.16 150 134.16 164.55 153.87 190 169.04 190 138.07 150 134.16 150"/><polygon class="cls-2" points="122.16 150 118.24 150 87.27 190 102.44 190 122.16 164.55 122.16 150"/><polygon class="cls-2" points="128.16 156.8 122.16 164.55 122.16 190 134.16 190 134.16 164.55 128.16 156.8"/><path class="cls-3" d="M56,35H200a12,12,0,0,1,12,12v8a0,0,0,0,1,0,0H44a0,0,0,0,1,0,0V47A12,12,0,0,1,56,35Z"/><path class="cls-4" d="M56,35H200a12,12,0,0,1,12,12v1a0,0,0,0,1,0,0H44a0,0,0,0,1,0,0V47A12,12,0,0,1,56,35Z"/><path class="cls-5" d="M212,57H44a2,2,0,0,1-2-2V47A14,14,0,0,1,56,33H200a14,14,0,0,1,14,14v8A2,2,0,0,1,212,57ZM46,53H210V47a10,10,0,0,0-10-10H56A10,10,0,0,0,46,47Z"/><path class="cls-3" d="M44,160H212a0,0,0,0,1,0,0v8a12,12,0,0,1-12,12H56a12,12,0,0,1-12-12v-8a0,0,0,0,1,0,0Z"/><path class="cls-4" d="M44,160H212a0,0,0,0,1,0,0v1a12,12,0,0,1-12,12H56a12,12,0,0,1-12-12v-1a0,0,0,0,1,0,0Z"/><path class="cls-5" d="M56,182a14,14,0,0,1-14-14v-8a2,2,0,0,1,2-2H212a2,2,0,0,1,2,2v8a14,14,0,0,1-14,14M46,162v6a10,10,0,0,0,10,10H200a10,10,0,0,0,10-10v-6Z"/><rect class="cls-6" height="105" width="168" x="44" y="55"/><rect class="cls-7" height="95.02" width="168" x="44" y="64.98"/><path class="cls-5" d="M212,162H44a2,2,0,0,1-2-2V55a2,2,0,0,1,2-2H212a2,2,0,0,1,2,2V160A2,2,0,0,1,212,162ZM46,158H210V57H46Z"/><path class="cls-8" d="M156.83,98.8l0-.13a2,2,0,0,0-.13-.31l-.07-.12a2,2,0,0,0-.22-.3l-.06-.07a2,2,0,0,0-.36-.29l0,0-9.53-5.83a2,2,0,1,0-2.09,3.41L148,97.4c-35.07,1.39-54.82,13.79-63.62,39.66a2,2,0,1,0,3.79,1.29c8.26-24.26,26.19-35.54,59.36-36.93l-3.22,2a2,2,0,1,0,2.09,3.41l9.53-5.83,0,0a2,2,0,0,0,.36-.29l.06-.07a2,2,0,0,0,.22-.3l.07-.12a2,2,0,0,0,.13-.31l0-.13a1.83,1.83,0,0,0,0-.93Z"/><path class="cls-1" d="M116.19,147.64a12,12,0,1,1,12-12A12,12,0,0,1,116.19,147.64Zm0-19.94a8,8,0,1,0,8,8A8,8,0,0,0,116.19,127.7Z"/><path class="cls-1" d="M109.51,91.3a12,12,0,1,1,12-12A12,12,0,0,1,109.51,91.3Zm0-19.94a8,8,0,1,0,8,8A8,8,0,0,0,109.51,71.36Z"/><path class="cls-1" d="M176,111.24a12,12,0,1,1,12-12A12,12,0,0,1,176,111.24Zm0-19.94a8,8,0,1,0,8,8A8,8,0,0,0,176,91.3Z"/><path class="cls-4" d="M153.65,126.64l5.64-5.64a2,2,0,0,0-2.83-2.83l-5.64,5.64-5.64-5.64a2,2,0,0,0-2.83,2.83l5.64,5.64-5.64,5.64a2,2,0,1,0,2.83,2.83l5.64-5.64,5.64,5.64a2,2,0,0,0,2.83-2.83Z"/><path class="cls-4" d="M78.87,89.3l5.64-5.64a2,2,0,0,0-2.83-2.83L76,86.47,70.4,80.83a2,2,0,0,0-2.83,2.83l5.64,5.64-5.64,5.64a2,2,0,1,0,2.83,2.83L76,92.12l5.64,5.64a2,2,0,0,0,2.83-2.83Z"/><circle class="cls-9" cx="24" cy="128" r="5"/><circle class="cls-9" cx="156" cy="208" r="4"/><circle class="cls-9" cx="32" cy="202" r="3"/><circle class="cls-9" cx="225" cy="144" r="2"/><circle class="cls-9" cx="218" cy="51" r="1"/><circle class="cls-10" cx="227" cy="95" r="5"/><circle class="cls-10" cx="238" cy="44" r="4"/><circle class="cls-10" cx="237" cy="182" r="3"/><circle class="cls-10" cx="24" cy="53" r="2"/><circle class="cls-10" cx="16" cy="146" r="1"/><circle class="cls-11" cx="104" cy="211" r="5"/><circle class="cls-11" cx="244" cy="132" r="4"/><circle class="cls-11" cx="251" cy="90" r="3"/><circle class="cls-11" cx="201" cy="202" r="2"/><circle class="cls-11" cx="214" cy="203" r="1"/><circle class="cls-12" cx="7" cy="193" r="5"/><circle class="cls-12" cx="32" cy="89" r="4"/><circle class="cls-12" cx="187" cy="188" r="3"/><circle class="cls-12" cx="72" cy="193" r="2"/><circle class="cls-12" cx="28" cy="67" r="1"/></g></svg>