<?xml version="1.0" standalone="no"?>
<!DOCTYPE svg PUBLIC "-//W3C//DTD SVG 20010904//EN"
 "http://www.w3.org/TR/2001/REC-SVG-20010904/DTD/svg10.dtd">
<svg version="1.0" xmlns="http://www.w3.org/2000/svg"
 width="596.000000pt" height="596.000000pt" viewBox="0 0 596.000000 596.000000"
 preserveAspectRatio="xMidYMid meet">
<metadata>
Created by potrace 1.11, written by Peter Selinger 2001-2013
</metadata>
<g transform="translate(0.000000,596.000000) scale(0.100000,-0.100000)"
fill="#000000" stroke="none">
<path d="M3090 5839 c0 -6 -14 -8 -36 -4 -20 3 -42 1 -49 -5 -9 -8 -15 -8 -20
0 -4 7 -12 7 -25 0 -10 -5 -32 -10 -47 -10 -16 0 -34 -5 -40 -11 -6 -6 -30
-12 -54 -14 -24 -1 -45 -8 -47 -14 -2 -6 -12 -11 -23 -11 -10 0 -19 -4 -19
-10 0 -5 -7 -10 -15 -10 -8 0 -15 -4 -15 -8 0 -5 -6 -9 -12 -9 -7 0 -35 -10
-63 -23 -27 -12 -61 -27 -75 -32 -14 -6 -32 -14 -40 -19 -8 -5 -22 -12 -30
-16 -8 -4 -21 -13 -28 -20 -7 -7 -20 -13 -28 -13 -8 0 -14 -4 -14 -10 0 -5 -8
-10 -18 -10 -15 0 -92 -48 -112 -70 -3 -3 -16 -11 -30 -18 -100 -51 -350 -281
-447 -410 -68 -91 -141 -247 -169 -362 -7 -30 -17 -73 -23 -95 -32 -128 -56
-366 -53 -531 2 -87 34 -272 57 -327 10 -24 23 -37 42 -41 15 -4 36 -9 45 -12
12 -4 16 -1 13 8 -6 17 11 45 22 35 4 -5 2 -12 -5 -16 -18 -11 -6 -34 29 -55
17 -10 28 -20 25 -23 -7 -7 19 -56 38 -72 9 -8 16 -22 16 -32 0 -11 4 -19 9
-19 5 0 12 -12 15 -26 4 -14 12 -24 19 -21 23 7 27 102 12 290 -5 74 -11 91
-27 81 -6 -4 -5 2 1 15 14 26 7 41 -20 41 -10 0 -19 7 -19 15 0 14 3 14 24 0
31 -21 36 -12 42 70 4 57 2 65 -13 66 -14 0 -12 3 5 10 13 5 20 13 17 19 -3 5
-1 10 5 10 6 0 9 4 5 9 -3 5 0 13 5 16 8 5 5 14 -6 26 -16 18 -16 19 -1 13 25
-9 21 5 -10 34 -16 13 -22 21 -15 18 6 -4 12 -3 12 2 0 6 14 9 31 8 26 -1 34
4 41 26 7 21 6 32 -6 44 -10 10 -16 11 -16 3 0 -9 -3 -9 -14 0 -11 9 -15 8
-20 -5 -4 -9 -9 -14 -13 -11 -12 12 -32 -27 -21 -40 8 -10 5 -13 -11 -13 -12
0 -21 6 -21 15 0 23 -3 28 -40 63 -32 30 -35 31 -40 13 -6 -23 -19 -17 -37 15
-9 18 -9 25 3 40 9 11 13 13 9 7 -3 -7 -3 -13 2 -14 4 0 18 -2 30 -5 20 -3 21
-1 13 26 -5 18 -5 30 1 30 5 0 9 5 9 11 0 5 -4 8 -9 4 -5 -3 -12 -1 -15 4 -4
5 -2 12 4 16 16 10 1 27 -19 20 -13 -4 -17 1 -16 18 0 25 29 59 60 72 18 7 18
9 3 12 -10 3 -18 9 -18 14 0 5 -7 9 -15 9 -13 0 -14 4 -4 23 11 20 11 21 -5 8
-9 -8 -19 -12 -21 -9 -8 7 16 68 26 68 5 0 9 7 9 15 0 8 8 15 18 15 14 0 15 2
2 10 -10 6 -11 10 -2 10 6 0 12 7 12 15 0 20 40 65 58 65 8 0 23 10 33 22 12
13 19 16 19 8 0 -7 3 -10 7 -6 5 4 0 13 -10 21 -16 11 -16 13 -2 19 9 3 14 2
11 -3 -3 -5 5 -8 18 -7 15 0 22 6 18 15 -3 7 1 17 9 22 12 7 12 9 -1 10 -8 1
-19 2 -25 4 -5 1 -16 3 -22 3 -23 3 -14 28 23 66 26 27 33 40 25 46 -10 5 -9
11 3 23 9 8 16 20 16 26 0 6 6 11 13 11 8 0 7 4 -3 10 -8 5 -10 10 -5 10 6 0
3 5 -5 11 -13 9 -13 10 0 8 24 -2 58 12 64 27 3 8 1 14 -3 14 -5 0 -11 -6 -14
-12 -2 -7 -8 -10 -11 -6 -4 3 2 16 14 28 11 11 18 25 15 29 -2 5 13 25 36 44
22 20 40 39 40 44 -1 4 4 8 9 7 6 -1 19 -2 29 -2 11 -1 28 -10 37 -19 15 -16
17 -16 12 -2 -4 11 1 20 17 27 17 8 22 17 18 31 -5 18 -1 21 25 21 17 0 34 5
37 11 4 6 13 8 20 5 7 -2 17 0 23 6 6 6 12 6 16 -1 9 -15 36 -2 37 18 0 11 3
9 9 -6 6 -14 15 -21 24 -17 15 6 12 27 -7 52 -8 9 -7 16 1 21 7 4 8 12 2 21
-7 11 -10 12 -10 2 0 -7 -4 -10 -10 -7 -5 3 -10 12 -10 20 0 10 7 12 28 6 15
-4 34 -6 42 -4 9 3 11 1 5 -4 -13 -10 -19 -47 -7 -39 5 3 16 -2 23 -11 12 -14
12 -16 -1 -9 -8 4 -6 0 5 -9 15 -12 30 -14 60 -9 22 4 52 7 67 7 15 0 26 2 23
6 -2 4 18 3 45 -3 44 -9 49 -12 44 -32 -5 -20 -1 -23 43 -28 26 -4 64 -9 83
-12 19 -3 52 -5 73 -5 22 1 36 -3 32 -9 -3 -5 7 -3 22 5 38 20 63 19 63 -2 0
-12 3 -14 8 -6 8 12 62 13 62 1 0 -20 20 -5 21 15 0 21 1 21 11 -3 5 -14 14
-33 20 -44 6 -12 6 -16 -1 -11 -7 3 -11 -2 -11 -14 0 -12 5 -21 11 -21 5 0 7
6 3 13 -5 8 -2 8 9 -2 9 -7 17 -19 17 -26 0 -8 6 -16 13 -18 7 -3 6 -6 -5 -6
-10 -1 -16 -9 -15 -20 1 -16 4 -18 16 -8 12 10 14 8 9 -11 -6 -20 -4 -22 10
-11 9 6 4 0 -11 -15 -23 -21 -25 -27 -13 -32 9 -3 13 -10 10 -15 -3 -5 0 -17
5 -26 9 -16 11 -15 12 7 1 20 3 16 12 -15 14 -48 26 -67 36 -61 4 3 8 -2 8
-10 0 -11 -5 -10 -22 6 -12 11 -25 17 -28 13 -12 -12 -7 -23 11 -24 10 0 12
-3 5 -6 -23 -9 -15 -32 9 -25 17 4 20 2 15 -11 -4 -10 -2 -17 3 -17 6 0 10 -7
10 -15 0 -8 5 -15 11 -15 6 0 9 -7 5 -15 -3 -8 -1 -15 4 -15 18 0 36 -55 33
-97 -2 -23 1 -44 7 -48 6 -4 11 5 11 22 0 80 1 86 9 73 5 -8 6 -27 3 -42 -3
-15 0 -34 6 -41 6 -8 8 -17 4 -20 -3 -4 -1 -7 6 -7 6 0 -1 -16 -16 -35 -15
-19 -29 -39 -29 -45 -1 -5 -3 -12 -4 -15 -1 -3 -3 -8 -5 -12 -6 -25 -21 -50
-34 -61 -14 -12 -14 -13 3 -8 17 6 17 5 5 -11 -12 -14 -12 -16 2 -11 12 5 15
-2 15 -27 0 -19 -3 -32 -7 -29 -15 9 4 -37 20 -49 18 -13 20 -25 8 -44 -11
-18 -34 -16 -34 2 0 11 4 12 13 4 8 -7 14 -7 19 1 3 5 1 10 -4 10 -6 0 -10 5
-8 11 1 6 -6 13 -15 14 -10 2 -18 -1 -18 -7 0 -5 -7 -17 -16 -25 -8 -9 -13
-25 -11 -35 4 -14 1 -18 -9 -14 -8 3 -13 0 -11 -7 1 -7 -7 -12 -18 -12 -11 0
-25 -11 -32 -25 l-13 -25 6 25 c4 21 3 23 -8 10 -7 -9 -19 -15 -25 -14 -7 1
-25 2 -39 3 -14 0 -22 5 -19 11 3 6 -1 10 -10 10 -11 0 -15 -5 -12 -14 4 -9
-5 -16 -26 -20 -19 -4 -33 -2 -35 4 -2 5 -10 10 -18 10 -9 0 -12 -4 -9 -10 3
-6 -1 -7 -9 -4 -9 3 -13 10 -10 15 3 5 0 9 -5 9 -6 0 -11 -6 -11 -13 0 -9 -12
-13 -35 -12 -22 0 -35 -4 -35 -12 0 -17 -11 -16 -46 2 -22 11 -31 12 -42 2 -8
-6 -30 -13 -49 -14 -19 -1 -40 -7 -47 -12 -7 -6 -17 -7 -21 -3 -5 4 -5 1 -1
-5 4 -7 2 -13 -4 -13 -6 0 -8 -4 -5 -10 3 -5 -3 -10 -14 -10 -12 0 -21 -4 -21
-10 0 -5 -7 -10 -15 -10 -9 0 -18 -7 -21 -15 -3 -8 -16 -17 -27 -21 -12 -4
-37 -22 -55 -40 -19 -19 -38 -34 -44 -34 -5 0 -6 -5 -3 -10 4 -6 2 -9 -3 -8
-14 4 -91 -55 -92 -69 0 -7 -3 -13 -7 -13 -5 0 -19 -10 -33 -21 -22 -18 -22
-19 -3 -10 12 6 26 10 30 9 16 -4 53 14 48 23 -3 5 2 6 11 2 10 -4 15 -2 11 3
-3 6 5 10 19 10 19 0 24 -5 24 -24 0 -13 -4 -21 -9 -18 -5 3 -11 -17 -15 -44
-4 -29 -12 -50 -19 -50 -7 0 -4 -5 6 -11 24 -14 6 -45 -39 -66 -19 -9 -34 -23
-34 -30 0 -7 0 -16 0 -20 0 -5 9 -9 21 -9 12 -1 26 -8 31 -15 8 -11 9 -10 4 4
-4 14 0 17 25 15 l31 -2 -22 -18 c-12 -10 -18 -18 -14 -18 5 0 1 -5 -8 -11
-10 -5 -18 -18 -18 -28 0 -20 25 -35 41 -25 6 3 8 -6 5 -20 -3 -15 -1 -24 5
-21 5 4 7 11 4 16 -4 5 -1 9 4 9 6 0 11 11 11 24 0 20 -4 23 -21 19 -19 -5
-20 -3 -10 14 5 11 7 23 4 27 -3 3 -1 6 6 6 7 0 10 -7 6 -19 -4 -14 -1 -18 15
-17 11 0 20 5 19 10 -1 11 21 26 39 26 7 0 10 -5 7 -10 -4 -6 -11 -8 -16 -5
-5 4 -9 1 -9 -4 0 -6 6 -12 13 -13 6 0 17 -2 22 -2 6 -1 16 -5 24 -10 9 -6 12
-5 8 1 -8 12 21 22 41 15 10 -3 8 -8 -5 -17 -10 -7 -15 -17 -11 -21 4 -4 14
-1 22 5 9 8 24 10 38 5 13 -4 26 -7 31 -6 4 1 7 -5 7 -13 0 -8 15 -21 33 -29
17 -8 26 -15 20 -15 -7 -1 -13 -10 -13 -20 0 -14 -5 -18 -20 -14 -11 3 -20 0
-20 -6 0 -6 4 -11 10 -11 5 0 7 -7 3 -16 -5 -14 -3 -15 14 -6 15 8 23 8 33 -1
10 -9 11 -9 5 1 -6 11 -3 12 14 3 11 -7 21 -17 21 -24 0 -8 4 -7 9 3 6 8 7 18
4 24 -4 5 -1 6 8 1 25 -16 70 -15 94 1 14 9 25 14 25 11 0 -4 24 5 53 18 28
14 60 25 70 25 9 0 17 4 17 9 0 5 10 13 23 16 12 4 37 13 56 22 30 14 51 20
74 22 4 1 12 12 17 25 10 26 28 28 54 7 9 -8 19 -11 23 -7 3 3 2 6 -4 6 -8 0
-8 7 0 24 8 16 14 21 19 13 6 -9 8 -9 8 1 0 6 7 12 15 12 8 0 15 5 15 10 0 6
-5 10 -11 10 -5 0 -8 4 -5 9 4 5 -4 7 -16 3 -20 -5 -21 -3 -14 51 3 32 2 57
-3 57 -5 0 -12 17 -17 38 -11 51 -11 82 -2 76 4 -3 8 0 8 6 0 6 5 8 10 5 6 -3
10 -1 10 4 0 6 6 11 13 11 7 0 14 12 15 28 1 15 7 29 12 30 6 2 10 10 10 18 0
9 5 12 10 9 6 -4 7 -11 4 -17 -4 -5 4 -5 17 2 19 11 25 10 37 -6 13 -18 14
-18 7 4 -4 13 -2 22 4 22 6 0 11 -7 11 -16 0 -11 6 -14 23 -8 12 3 19 3 14 -1
-4 -5 0 -17 10 -27 9 -10 13 -18 9 -18 -4 0 -2 -9 4 -19 7 -13 7 -20 -1 -23
-5 -2 0 -14 12 -27 23 -25 43 -95 41 -148 0 -18 4 -33 9 -33 6 0 9 -12 8 -27
-1 -16 -1 -37 0 -48 1 -17 3 -18 11 -5 8 11 9 9 5 -10 -3 -14 -2 -44 3 -67 8
-36 7 -45 -10 -63 -28 -30 -29 -52 -3 -72 21 -16 22 -20 10 -55 -8 -23 -10
-42 -4 -47 12 -13 12 -39 -1 -31 -13 8 -13 -11 0 -35 7 -13 7 -21 0 -25 -6 -4
-8 -10 -5 -15 3 -4 -6 -15 -20 -24 -14 -9 -25 -24 -25 -33 0 -13 -6 -11 -27 9
-33 31 -144 63 -182 52 -14 -4 -30 -6 -35 -5 -4 1 -14 -3 -22 -10 -7 -6 -18
-8 -23 -4 -7 3 -8 0 -5 -9 4 -11 0 -16 -10 -16 -9 0 -16 -7 -16 -15 0 -9 -6
-12 -15 -9 -8 4 -22 1 -29 -6 -16 -12 -31 5 -57 68 -14 32 -34 47 -22 15 4
-11 3 -14 -5 -9 -7 4 -12 12 -12 18 0 6 -6 16 -13 22 -7 6 -11 10 -8 9 9 -5
27 25 29 50 2 25 0 26 -18 17 -11 -6 -19 -14 -19 -18 3 -19 -2 -23 -16 -12
-12 10 -16 8 -25 -15 -5 -14 -14 -23 -20 -20 -5 3 -10 -1 -10 -9 0 -9 -7 -16
-15 -16 -31 0 -79 -36 -69 -51 2 -4 0 -10 -6 -14 -5 -3 -10 0 -11 7 0 7 -7 0
-14 -17 -8 -16 -14 -26 -15 -21 0 6 -9 0 -21 -13 -11 -12 -18 -29 -15 -37 3
-7 1 -14 -4 -14 -6 0 -10 6 -10 12 0 14 -23 -18 -33 -45 -4 -12 -3 -16 4 -11
7 4 7 0 -1 -15 -6 -12 -15 -19 -21 -16 -8 6 -13 -8 -10 -27 0 -5 -3 -8 -9 -8
-5 0 -10 -9 -10 -19 0 -10 -7 -21 -15 -24 -8 -4 -21 -32 -30 -64 -8 -32 -19
-70 -24 -85 -6 -17 -6 -30 0 -34 6 -4 6 -11 -1 -19 -9 -11 -9 -99 0 -125 3 -8
6 -32 8 -58 1 -13 6 -21 11 -18 5 4 8 -2 6 -11 -1 -10 -7 -17 -12 -16 -5 1
-10 -10 -11 -23 -1 -16 2 -23 9 -18 8 4 8 1 0 -14 -6 -12 -16 -24 -23 -28 -7
-4 -8 -3 -4 4 4 7 3 12 -3 12 -5 0 -8 -19 -6 -42 2 -24 8 -42 14 -41 15 4 14
-7 -3 -39 -9 -18 -11 -28 -4 -28 7 0 7 -4 1 -13 -13 -16 -15 -65 -3 -72 5 -3
6 -13 3 -23 -5 -14 -3 -15 8 -4 20 18 27 15 21 -13 -3 -16 -11 -25 -23 -25
-11 0 -19 -7 -19 -16 0 -8 -4 -12 -10 -9 -5 3 -10 1 -10 -4 0 -6 -7 -11 -16
-11 -9 0 -14 6 -11 13 3 8 -3 13 -14 13 -11 0 -19 -5 -19 -12 0 -6 -8 -22 -19
-35 -10 -13 -17 -31 -16 -39 2 -10 -6 -17 -19 -18 -16 -1 -18 1 -6 8 8 5 11
10 6 10 -5 0 -3 7 4 15 10 13 6 21 -24 48 -25 24 -33 36 -25 44 16 16 -4 23
-37 13 -16 -4 -22 -9 -13 -9 25 -1 41 -25 27 -39 -15 -15 -32 -16 -23 -2 3 6
1 10 -5 10 -6 0 -18 -13 -27 -28 -13 -22 -23 -28 -50 -28 -18 0 -33 4 -33 9 0
4 -5 5 -12 1 -8 -5 -9 -2 -5 10 5 12 3 16 -5 13 -7 -2 -19 3 -26 12 -12 15
-13 15 -9 0 4 -13 1 -15 -15 -11 -14 3 -19 1 -14 -6 4 -7 13 -12 19 -12 7 0
13 -9 14 -20 2 -26 -13 -26 -27 0 -11 21 -40 28 -40 9 0 -5 3 -8 8 -6 4 3 8
-9 9 -26 1 -17 7 -35 13 -41 5 -5 10 -18 10 -28 0 -21 23 -24 42 -5 17 17 34
2 44 -36 3 -16 11 -24 19 -21 7 3 16 1 20 -5 3 -6 1 -11 -5 -11 -6 0 -9 -4 -6
-9 3 -5 16 -7 29 -3 19 5 20 3 10 -10 -10 -12 -8 -19 13 -37 25 -21 27 -22 45
-5 11 10 19 12 19 6 0 -7 -4 -12 -10 -12 -5 0 -10 -11 -10 -25 0 -18 4 -23 15
-19 8 4 15 1 15 -5 0 -6 7 -8 17 -4 13 5 15 2 10 -12 -4 -9 -2 -25 5 -33 9
-11 9 -14 1 -9 -6 4 -14 3 -18 -3 -3 -5 7 -12 22 -16 15 -4 33 -10 38 -15 10
-7 16 -9 36 -9 5 0 8 -4 4 -9 -8 -14 -44 -9 -49 6 -3 7 -13 13 -22 13 -15 0
-14 -4 6 -25 13 -14 19 -25 14 -25 -5 0 -2 -5 6 -10 10 -7 11 -10 2 -10 -7 0
-18 11 -24 25 -12 28 -28 33 -28 10 0 -10 -10 -15 -31 -15 -17 0 -28 4 -24 10
4 6 -3 9 -17 6 -13 -2 -27 0 -33 4 -9 7 -32 12 -107 26 -25 4 -29 3 -18 -5 8
-6 10 -11 4 -11 -6 0 -18 8 -25 17 -8 10 -9 14 -2 10 6 -4 14 -3 17 2 3 4 -13
11 -35 14 -22 3 -49 13 -60 23 -11 10 -27 19 -35 20 -26 4 -66 35 -71 55 -3
10 -9 19 -14 19 -5 0 -9 5 -9 10 0 6 -9 19 -20 30 l-20 20 0 -33 c0 -18 -5
-38 -12 -45 -9 -9 -8 -15 8 -27 10 -8 25 -12 32 -10 7 3 10 0 7 -5 -3 -6 -3
-10 2 -11 58 -4 84 -14 155 -59 131 -82 267 -175 322 -221 17 -14 54 -41 81
-59 28 -19 52 -37 55 -40 3 -3 28 -21 55 -40 28 -19 52 -37 55 -40 3 -3 28
-22 55 -40 28 -19 52 -37 53 -42 2 -4 10 -8 17 -8 7 0 15 -3 17 -7 5 -13 69
-55 74 -50 3 3 -14 18 -36 33 -83 57 -205 149 -208 156 -2 5 -10 8 -18 8 -8 0
-14 4 -14 8 0 5 -17 18 -37 30 -21 12 -50 31 -65 44 -57 49 -69 58 -77 58 -5
0 -11 4 -13 8 -1 5 -51 41 -111 81 -95 64 -124 91 -99 91 11 0 186 -121 190
-132 2 -4 10 -8 18 -8 8 0 14 -4 14 -8 0 -4 13 -16 30 -25 16 -10 35 -23 42
-30 7 -7 36 -28 63 -47 28 -19 52 -38 53 -42 2 -5 8 -8 14 -8 5 0 15 -6 22
-12 14 -14 31 -27 151 -116 44 -32 92 -67 108 -76 36 -24 34 -32 -10 -33 -21
-1 -39 -6 -41 -12 -5 -14 -32 -15 -32 -1 0 6 -7 10 -16 10 -14 0 -14 -2 -3
-16 12 -15 10 -16 -19 -10 -17 4 -32 4 -32 -1 0 -4 -14 -14 -30 -22 -26 -11
-33 -11 -47 0 -14 12 -15 11 -9 -9 8 -24 -3 -28 -34 -12 -15 8 -17 6 -13 -10
3 -11 0 -20 -6 -20 -6 0 -25 -13 -41 -30 -18 -18 -35 -27 -45 -24 -10 4 -15 0
-15 -10 0 -9 -7 -16 -15 -16 -8 0 -15 -6 -15 -14 0 -22 -19 -30 -35 -16 -11 9
-15 9 -15 1 0 -6 5 -11 11 -11 6 0 9 -6 6 -12 -2 -7 -14 -11 -27 -10 -21 4
-22 2 -11 -12 12 -15 8 -21 -12 -17 -5 1 -11 -8 -14 -19 -3 -11 -9 -20 -14
-20 -5 0 -9 -7 -9 -16 0 -12 -7 -15 -25 -12 -14 3 -25 1 -25 -3 0 -5 5 -9 11
-9 5 0 7 -5 4 -10 -4 -6 -15 -8 -26 -5 -13 4 -19 2 -19 -9 0 -12 -9 -15 -35
-13 -23 1 -35 7 -35 17 0 10 -3 11 -11 3 -14 -14 -70 6 -115 43 -44 34 -54 39
-54 25 0 -6 5 -11 10 -11 6 0 10 -6 10 -14 0 -8 6 -17 13 -19 9 -4 9 -6 0 -6
-17 -1 -73 55 -73 73 0 15 -98 81 -108 72 -3 -3 -10 3 -16 14 -6 11 -52 46
-103 79 -74 48 -93 57 -97 44 -4 -9 -4 -18 -1 -21 3 -3 5 0 5 8 0 10 3 10 15
0 13 -11 13 -16 -5 -45 -13 -21 -17 -36 -10 -40 5 -3 10 -2 10 3 0 14 132 -34
146 -53 8 -11 13 -12 16 -5 4 13 45 -25 96 -88 40 -51 30 -54 -21 -7 -38 35
-57 43 -57 25 0 -5 -7 -7 -15 -4 -8 4 -15 12 -15 20 0 8 -7 14 -15 14 -19 0
-19 -19 0 -26 8 -4 15 -10 15 -15 0 -14 -30 -11 -30 4 -1 6 -14 23 -30 37 -17
13 -30 28 -30 32 0 12 -33 48 -44 48 -5 0 -2 -8 7 -18 10 -10 17 -24 17 -30 0
-7 5 -12 10 -12 6 0 10 -7 10 -15 0 -31 -31 -6 -79 62 -12 18 -27 33 -32 33
-13 0 20 -58 48 -86 13 -12 23 -26 23 -33 0 -6 5 -11 10 -11 6 0 13 -7 17 -16
9 -25 94 -105 104 -98 5 3 -13 29 -41 57 -47 49 -62 77 -41 77 5 0 19 -16 31
-35 12 -19 26 -35 31 -35 5 0 9 -5 9 -10 0 -6 16 -24 35 -41 42 -37 46 -53 8
-34 -21 11 -29 12 -35 2 -6 -9 -10 -8 -18 3 -8 13 -11 13 -19 1 -12 -18 -41
-7 -41 16 0 15 1 15 13 -2 10 -12 16 -14 21 -7 9 15 -1 32 -20 32 -8 0 -13 4
-11 9 1 4 -17 27 -40 50 -24 22 -43 45 -43 51 0 5 -3 10 -7 10 -5 0 -24 23
-43 50 -36 51 -50 61 -50 35 0 -8 5 -15 10 -15 6 0 10 -4 10 -9 0 -6 11 -22
25 -37 14 -15 25 -33 25 -39 0 -7 7 -16 16 -19 8 -3 12 -11 9 -16 -8 -12 -35
14 -80 75 -38 53 -65 79 -73 70 -4 -4 -1 -10 6 -12 6 -3 12 -10 12 -17 0 -6
18 -31 40 -55 32 -34 38 -46 29 -57 -14 -17 -33 -19 -23 -2 5 7 3 8 -6 3 -18
-11 16 -36 37 -28 12 5 12 7 1 14 -9 6 -7 9 8 9 12 0 24 -7 28 -15 4 -10 -1
-15 -15 -15 -11 0 -17 -5 -14 -10 4 -7 12 -7 25 0 13 7 21 7 25 0 3 -5 -2 -10
-11 -10 -15 0 -16 -2 -5 -13 10 -10 15 -9 25 6 7 9 21 17 30 17 16 0 16 -2 2
-22 -17 -23 -6 -48 20 -48 17 0 18 -12 2 -28 -9 -9 -9 -12 0 -12 7 0 12 -5 12
-11 0 -5 -4 -8 -9 -4 -5 3 -12 1 -15 -4 -11 -17 13 -22 36 -9 27 14 71 23 50
9 -11 -6 -10 -11 3 -25 20 -20 12 -21 -18 -1 -14 9 -27 11 -37 5 -12 -7 -11
-12 5 -30 11 -12 25 -18 37 -14 19 6 25 -10 8 -21 -12 -8 3 -36 48 -89 6 -8
12 -20 12 -26 0 -5 5 -10 10 -10 19 0 10 -29 -11 -35 -20 -7 -59 22 -59 44 0
5 -7 11 -15 15 -8 3 -15 12 -15 21 0 8 -3 15 -8 15 -4 0 -13 12 -20 27 -12 29
-63 88 -94 112 -29 22 -21 5 17 -36 38 -42 43 -53 20 -53 -8 0 -15 5 -15 11 0
12 -64 79 -75 79 -4 0 9 -22 29 -49 20 -27 36 -54 36 -60 0 -6 5 -11 10 -11 6
0 10 -4 10 -10 0 -5 18 -28 40 -52 42 -45 50 -61 25 -52 -8 4 -15 9 -15 13 0
4 -12 20 -27 37 -50 55 -68 79 -82 106 -18 34 -59 74 -68 65 -3 -4 2 -16 12
-27 13 -15 15 -20 4 -20 -7 0 -26 14 -41 32 -15 18 -30 29 -34 26 -3 -4 6 -19
20 -35 14 -15 26 -33 26 -40 0 -7 5 -13 10 -13 6 0 10 -4 10 -10 0 -5 18 -28
40 -52 42 -45 50 -61 25 -52 -8 4 -15 10 -15 14 0 4 -18 26 -40 48 -22 22 -40
45 -40 51 0 6 -4 11 -10 11 -5 0 -10 5 -10 10 0 10 -21 33 -55 60 -17 13 -18
13 -10 0 26 -45 94 -130 129 -163 24 -22 37 -40 31 -45 -14 -10 -17 -32 -5
-32 6 0 10 6 10 14 0 23 43 24 67 2 43 -37 23 -1 -31 59 -50 54 -60 75 -35 75
5 0 9 -7 9 -15 0 -8 32 -46 71 -85 46 -45 69 -76 65 -85 -3 -8 -1 -15 4 -15 6
0 10 14 10 30 0 34 6 37 32 13 10 -9 18 -11 18 -5 0 5 9 8 20 5 12 -3 20 0 20
7 0 6 14 0 32 -15 26 -22 39 -26 70 -22 25 3 41 0 49 -9 8 -10 8 -14 0 -14 -6
0 -11 -7 -11 -16 0 -13 7 -15 33 -10 30 5 31 5 13 -9 -24 -18 -7 -20 18 -2 21
15 20 16 -49 72 -54 43 -101 105 -81 105 9 0 16 -4 16 -10 0 -5 25 -35 56 -66
43 -44 58 -54 64 -44 5 8 12 11 17 7 4 -5 1 -12 -6 -16 -18 -11 2 -23 26 -15
15 5 15 4 3 -5 -23 -16 -4 -24 29 -13 17 6 33 7 36 3 4 -8 -50 -26 -67 -22 -5
0 -8 -4 -8 -10 0 -6 7 -9 15 -5 10 3 15 -1 15 -12 0 -14 2 -15 9 -2 6 8 7 18
5 22 -3 4 2 8 10 8 8 0 18 -4 21 -10 10 -16 25 -12 19 5 -4 8 -1 15 5 15 6 0
11 -9 11 -19 0 -11 5 -23 12 -27 6 -4 8 -3 5 3 -4 6 0 14 9 17 24 9 42 6 19
-4 -19 -8 -19 -9 3 -9 13 -1 21 -5 18 -9 -5 -8 4 -10 94 -14 30 -2 54 -6 53
-10 -2 -5 -3 -12 -3 -17 0 -5 -12 -12 -26 -15 -21 -6 -24 -9 -14 -21 8 -10 9
-15 2 -15 -6 0 -15 7 -20 16 -6 11 -17 15 -31 11 -13 -3 -20 -1 -19 6 4 17
-11 16 -52 -1 -19 -8 -45 -15 -57 -16 -13 0 -23 -5 -23 -9 0 -5 -5 -5 -11 -1
-7 4 -10 1 -7 -6 2 -8 10 -16 18 -18 7 -3 10 0 6 7 -4 6 -1 11 8 11 23 0 20
-18 -5 -25 -13 -5 -25 -1 -33 10 -9 12 -19 15 -40 9 l-28 -7 31 -28 c17 -15
31 -34 31 -41 0 -7 -19 7 -42 30 -33 35 -39 45 -27 53 18 11 12 11 -30 -1 -26
-7 -39 -6 -50 4 -13 10 -24 10 -55 1 -22 -6 -35 -14 -29 -18 6 -4 25 -2 42 4
18 6 35 9 38 5 10 -10 -3 -18 -31 -20 -14 0 -26 -4 -26 -8 0 -13 -14 -8 -39
13 -21 17 -22 22 -10 30 19 12 7 11 -27 -1 -19 -8 -30 -7 -40 1 -12 10 -13 9
-8 -5 8 -21 -12 -21 -24 0 -5 10 -12 12 -15 7 -4 -6 3 -19 14 -29 13 -12 23
-15 27 -7 4 5 16 13 28 17 17 5 31 -4 67 -45 62 -69 61 -85 0 -20 -38 40 -53
49 -70 45 -29 -8 -29 -15 4 -48 14 -14 23 -29 19 -33 -3 -4 -13 2 -20 13 -25
34 -65 74 -76 74 -5 0 -10 3 -10 8 0 4 -15 15 -33 25 -24 13 -17 4 27 -37 33
-31 57 -59 53 -63 -4 -3 -13 0 -20 9 -13 17 -125 108 -132 108 -2 0 -2 -7 1
-15 4 -8 11 -15 16 -15 19 0 107 -94 95 -102 -8 -5 -7 -11 2 -22 18 -22 1 -19
-27 3 -28 24 -28 34 1 26 21 -7 20 -5 -5 19 -15 14 -31 26 -37 26 -5 0 -11 3
-13 8 -6 14 -88 74 -88 64 0 -5 27 -29 60 -53 56 -41 72 -59 51 -59 -5 0 -14
7 -21 15 -7 8 -18 15 -24 15 -6 0 -2 -7 8 -15 25 -19 12 -33 -14 -17 -33 20
-32 13 2 -17 18 -16 30 -33 25 -37 -4 -4 -22 7 -40 24 -60 58 -53 33 8 -28 57
-58 61 -60 107 -59 27 1 48 7 48 12 0 5 6 4 14 -2 20 -17 138 -11 132 6 -3 7
-1 13 5 13 5 0 12 -7 15 -15 7 -18 61 -20 67 -2 3 9 7 9 19 0 22 -18 108 -13
108 7 1 12 3 12 14 -2 17 -23 118 -24 109 -2 -3 8 0 14 6 14 6 0 11 -7 11 -15
0 -10 11 -15 35 -15 21 0 35 5 35 12 0 9 3 9 12 0 17 -17 28 -15 22 5 -5 16
-4 17 8 2 15 -19 69 -22 80 -5 6 8 8 7 8 -2 0 -8 15 -12 50 -11 28 1 50 7 50
13 0 6 5 5 12 -2 16 -16 98 -16 98 1 0 8 2 9 8 1 9 -15 212 -15 212 0 0 6 5 5
12 -2 15 -15 98 -16 98 -1 0 8 4 8 14 0 17 -14 88 -11 98 3 5 7 8 7 8 -2 0 -8
15 -12 50 -11 28 1 50 7 50 12 0 6 5 6 13 -1 16 -13 67 -13 67 0 0 7 5 6 13
-1 10 -7 152 -11 480 -10 435 0 466 1 461 17 -5 16 -5 16 9 0 12 -16 51 -17
451 -18 294 0 435 3 431 10 -9 14 38 13 53 -2 6 -6 14 -9 17 -6 3 3 -18 26
-47 52 -29 25 -63 56 -75 67 -13 12 -27 18 -34 13 -7 -4 -10 -3 -6 3 7 11 -55
73 -73 73 -5 0 -10 4 -10 10 0 5 -11 12 -25 16 -14 3 -25 9 -25 13 0 11 -71
43 -78 36 -8 -8 19 -25 40 -25 9 0 21 -6 25 -13 4 -6 24 -21 43 -31 52 -29 64
-51 30 -53 -11 -1 -18 2 -15 7 9 14 -27 21 -43 8 -13 -11 -14 -11 -8 0 5 9 1
15 -13 19 -12 3 -21 9 -21 14 0 5 -7 9 -15 9 -8 0 -15 4 -15 9 0 5 -11 8 -25
7 -22 -3 -24 0 -21 26 1 17 9 34 17 40 11 8 10 9 -4 4 -10 -3 -23 -1 -30 4
-38 32 -111 82 -151 105 l-46 26 -1 -23 c-1 -18 -2 -19 -6 -5 -2 10 -10 17
-16 16 -36 -4 -57 2 -58 19 0 10 -3 12 -6 5 -8 -20 -31 -15 -55 12 -11 13 -25
22 -29 20 -4 -3 -10 3 -14 14 -4 12 -24 26 -55 36 -28 9 -50 21 -50 26 0 6 14
22 30 36 17 14 37 38 45 54 17 32 20 139 4 139 -5 0 2 11 18 24 24 21 26 26
13 40 -12 16 -11 17 15 10 24 -6 27 -4 22 10 -4 9 -1 16 6 16 18 0 43 43 28
48 -6 2 -11 8 -11 14 0 7 5 6 14 -1 10 -9 18 -3 38 26 30 46 52 109 44 128 -3
8 -13 15 -23 15 -14 0 -15 2 -4 9 10 7 11 13 2 30 -7 11 -16 21 -22 21 -12 0
-7 37 8 65 30 54 29 55 -255 195 -112 55 -390 170 -411 170 -26 0 -30 28 -14
91 24 97 44 129 159 250 58 61 117 128 132 148 15 20 37 47 48 59 65 73 169
340 200 512 10 60 21 209 28 405 10 294 12 312 34 346 12 20 25 58 28 85 3 27
12 67 20 89 13 35 13 45 0 83 -8 23 -27 53 -42 65 -26 23 -27 26 -28 143 0 65
3 189 7 274 8 152 -2 325 -24 430 -27 127 -134 365 -193 429 -8 9 -25 26 -36
39 -12 13 -19 26 -17 29 3 2 -2 13 -11 23 -11 13 -20 16 -27 10 -7 -6 -15 -7
-18 -3 -9 9 -9 23 1 22 18 -3 22 2 10 15 -9 10 -15 11 -20 3 -5 -8 -15 -4 -32
12 -14 13 -24 27 -21 31 2 3 -9 19 -26 34 -29 27 -32 59 -3 35 8 -6 17 -10 19
-7 7 7 -85 130 -114 153 -14 11 -42 36 -62 55 -50 48 -81 72 -112 89 -15 8
-27 18 -27 22 0 5 -16 16 -35 25 -19 9 -35 20 -35 25 0 5 -8 9 -18 9 -9 0 -23
9 -30 20 -7 12 -18 17 -29 13 -11 -4 -14 -3 -9 5 4 8 1 12 -10 12 -10 0 -26 7
-35 16 -10 9 -29 17 -43 17 -14 0 -27 6 -30 14 -4 8 -13 13 -20 10 -8 -3 -20
0 -26 8 -6 8 -32 17 -56 21 -24 3 -47 10 -50 15 -3 5 -16 9 -30 9 -13 0 -24 4
-24 8 0 5 -14 9 -31 10 -17 0 -37 6 -45 13 -11 9 -17 9 -29 -1 -12 -10 -15
-10 -15 0 0 8 -9 11 -29 7 -16 -4 -43 -2 -60 3 -19 5 -31 5 -31 -1 0 -5 -7 -9
-15 -9 -8 0 -15 5 -15 10 0 6 -11 10 -25 10 -14 0 -25 -5 -25 -11z m-550 -304
c5 3 12 0 15 -6 5 -7 0 -10 -11 -7 -10 2 -19 10 -20 18 0 9 1 10 3 2 3 -7 8
-10 13 -7z m-45 5 c19 -8 19 -9 -2 -9 -12 -1 -25 4 -28 9 -7 12 2 12 30 0z
m-109 -72 c4 -7 3 -8 -4 -4 -8 5 -12 0 -12 -12 0 -11 -9 -22 -21 -25 -14 -4
-19 -1 -17 9 2 8 7 14 11 12 5 -2 13 5 18 15 12 20 15 21 25 5z m944 -288 c0
-5 -2 -10 -4 -10 -3 0 -8 5 -11 10 -3 6 -1 10 4 10 6 0 11 -4 11 -10z m-10
-40 c0 -5 -2 -10 -4 -10 -3 0 -8 5 -11 10 -3 6 -1 10 4 10 6 0 11 -4 11 -10z
m223 -25 c4 -8 3 -16 -1 -19 -4 -3 -9 4 -9 15 -2 23 3 25 10 4z m-198 -15 c13
-6 15 -9 5 -9 -8 0 -22 4 -30 9 -18 12 -2 12 25 0z m110 -120 c3 -5 1 -10 -4
-10 -6 0 -11 5 -11 10 0 6 2 10 4 10 3 0 8 -4 11 -10z m-115 -4 c0 -2 -7 -7
-16 -10 -8 -3 -12 -2 -9 4 6 10 25 14 25 6z m85 -294 c-1 -1 -12 -4 -23 -7
-16 -3 -19 0 -15 13 10 26 27 33 34 14 4 -9 5 -18 4 -20z m-25 -59 c0 -7 -8
-13 -17 -13 -13 0 -15 2 -5 8 7 5 10 17 6 28 -5 16 -4 16 5 4 6 -8 11 -21 11
-27z m45 25 c5 4 5 1 1 -6 -5 -9 -12 -9 -27 -2 -10 6 -19 13 -19 16 0 2 8 0
19 -5 10 -6 22 -7 26 -3z m10 -28 c-3 -5 -16 -10 -28 -9 -20 1 -20 2 3 9 14 4
26 8 28 9 2 1 0 -3 -3 -9z m-1725 -146 c0 -8 -5 -12 -10 -9 -6 4 -8 11 -5 16
9 14 15 11 15 -7z m1655 -14 c3 -5 -1 -10 -10 -10 -9 0 -13 5 -10 10 3 6 8 10
10 10 2 0 7 -4 10 -10z m-1630 -31 c-10 -15 -25 -10 -19 6 4 8 10 12 15 9 5
-3 7 -10 4 -15z m-44 -12 c-10 -9 -11 -8 -5 6 3 10 9 15 12 12 3 -3 0 -11 -7
-18z m1694 13 c3 -5 1 -10 -4 -10 -6 0 -11 5 -11 10 0 6 2 10 4 10 3 0 8 -4
11 -10z m27 -58 c-7 -2 -10 -8 -7 -12 3 -5 1 -11 -4 -15 -6 -3 -15 3 -20 14
-9 16 -7 20 7 24 20 4 42 -5 24 -11z m-1708 -20 c3 -5 -1 -9 -9 -9 -8 0 -12 4
-9 9 3 4 7 8 9 8 2 0 6 -4 9 -8z m82 -63 c18 -16 21 -26 14 -39 -7 -12 -5 -28
6 -50 9 -17 13 -34 10 -37 -3 -4 -6 -1 -6 5 0 7 -7 12 -15 12 -8 0 -15 -5 -15
-11 0 -5 -4 -8 -8 -5 -5 3 -9 -1 -9 -9 0 -8 5 -13 11 -12 6 1 12 -11 14 -26 3
-25 1 -28 -21 -25 -13 1 -31 -3 -39 -10 -13 -10 -16 -9 -20 6 -4 14 0 18 16
18 18 -1 21 6 24 47 2 33 7 47 18 47 19 0 18 20 -3 36 -17 13 -17 14 0 8 9 -3
17 -3 17 1 0 11 -27 34 -34 28 -3 -4 -6 -1 -6 5 0 7 8 12 18 13 14 0 14 2 -3
9 -12 5 -14 9 -6 9 8 1 25 -9 37 -20z m1634 -39 c0 -5 -7 -7 -15 -4 -8 4 -15
8 -15 10 0 2 7 4 15 4 8 0 15 -4 15 -10z m-1680 -112 c0 -11 -8 -18 -20 -18
-11 0 -20 5 -20 11 0 5 5 7 10 4 10 -6 14 6 11 35 -2 13 -1 13 8 0 6 -8 11
-23 11 -32z m122 -108 c4 0 8 -7 8 -16 0 -8 -4 -12 -10 -9 -5 3 -10 -3 -10
-14 0 -11 -5 -23 -11 -27 -8 -5 -9 6 -5 37 4 24 4 40 -1 34 -9 -11 -43 -19
-43 -10 0 12 28 34 34 28 3 -4 6 0 7 8 0 8 5 4 11 -8 6 -13 15 -23 20 -23z
m703 -19 c3 -5 1 -12 -4 -15 -5 -3 -11 1 -15 9 -6 16 9 21 19 6z m-800 -21
c-3 -5 -12 -10 -18 -10 -7 0 -6 4 3 10 19 12 23 12 15 0z m735 -5 c0 -8 -4
-15 -10 -15 -5 0 -7 7 -4 15 4 8 8 15 10 15 2 0 4 -7 4 -15z m32 -17 c-8 -8
-9 -4 -5 13 4 13 8 18 11 10 2 -7 -1 -18 -6 -23z m-852 12 c0 -5 -2 -10 -4
-10 -3 0 -8 5 -11 10 -3 6 -1 10 4 10 6 0 11 -4 11 -10z m115 -30 c3 -5 1 -10
-4 -10 -6 0 -11 5 -11 10 0 6 2 10 4 10 3 0 8 -4 11 -10z m2239 -5 c3 -9 0
-15 -9 -15 -9 0 -12 6 -9 15 4 8 7 15 9 15 2 0 5 -7 9 -15z m-2394 -11 c0 -2
-7 -4 -15 -4 -8 0 -15 4 -15 10 0 5 7 7 15 4 8 -4 15 -8 15 -10z m867 1 c0 -8
-4 -15 -9 -15 -4 0 -8 7 -8 15 0 8 4 15 8 15 5 0 9 -7 9 -15z m-824 -2 c-7 -2
-19 -2 -25 0 -7 3 -2 5 12 5 14 0 19 -2 13 -5z m792 -22 c-3 -6 -11 -11 -16
-11 -5 0 -4 6 3 14 14 16 24 13 13 -3z m-806 -8 c-9 -10 -8 -13 4 -13 24 0 29
-16 9 -31 -9 -7 -14 -10 -10 -5 4 5 1 15 -7 23 -19 19 -19 40 0 40 11 0 12 -4
4 -14z m801 -23 c0 -5 -2 -10 -4 -10 -3 0 -8 5 -11 10 -3 6 -1 10 4 10 6 0 11
-4 11 -10z m280 -90 c0 -13 -11 -13 -30 0 -12 8 -11 10 8 10 12 0 22 -4 22
-10z m-1009 -77 c13 -16 12 -17 -3 -4 -10 7 -18 15 -18 17 0 8 8 3 21 -13z
m1133 -148 c-7 -18 -14 -18 -38 0 -19 14 -18 15 12 15 24 0 30 -4 26 -15z
m256 -355 c0 -5 -2 -10 -4 -10 -3 0 -8 5 -11 10 -3 6 -1 10 4 10 6 0 11 -4 11
-10z m-20 -20 c0 -5 -2 -10 -4 -10 -3 0 -8 5 -11 10 -3 6 -1 10 4 10 6 0 11
-4 11 -10z m40 -16 c0 -8 4 -13 9 -9 5 3 16 -4 24 -15 8 -12 21 -18 35 -15 23
4 48 -25 34 -40 -4 -5 -1 -5 6 -1 6 4 12 15 12 24 1 12 5 10 15 -8 17 -30 19
-44 5 -35 -12 8 -13 3 0 -29 8 -23 7 -26 -13 -27 -12 -1 -25 -1 -29 0 -5 0 -8
-6 -8 -14 0 -8 -9 -15 -20 -15 -11 0 -20 -7 -20 -15 0 -8 -4 -15 -9 -15 -5 0
-11 7 -15 15 -3 8 -9 15 -14 15 -5 0 -9 -7 -9 -15 0 -8 4 -15 9 -15 5 0 6 -4
3 -10 -11 -18 -23 -11 -28 17 -3 16 0 31 6 35 7 5 8 8 2 8 -6 0 -15 -4 -20 -9
-6 -5 -27 -13 -48 -16 -37 -7 -38 -6 -35 18 5 36 13 41 53 39 26 -2 35 1 35
13 0 17 -11 20 -26 5 -6 -6 -15 -6 -24 0 -13 8 -12 10 3 10 9 0 17 8 18 18 0
13 2 14 6 2 10 -25 31 52 22 78 -6 16 -5 22 6 22 8 0 15 -7 15 -16z m-55 -33
c3 -5 2 -12 -3 -15 -5 -3 -9 1 -9 9 0 17 3 19 12 6z m28 -6 c-3 -9 -8 -14 -10
-11 -3 3 -2 9 2 15 9 16 15 13 8 -4z m4 -187 c-3 -8 -6 -5 -6 6 -1 11 2 17 5
13 3 -3 4 -12 1 -19z m177 -94 c17 -17 22 -39 7 -30 -5 4 -12 0 -15 -6 -2 -7
-4 -4 -3 7 1 11 -2 20 -8 20 -5 0 -9 -10 -7 -22 2 -18 -4 -22 -35 -27 -50 -8
-133 -15 -133 -12 0 6 42 51 48 52 4 0 22 4 41 8 22 5 36 4 40 -3 5 -8 13 -5
26 9 22 24 20 24 39 4z m61 -4 c3 -5 1 -10 -4 -10 -6 0 -11 5 -11 10 0 6 2 10
4 10 3 0 8 -4 11 -10z m-350 -230 c-3 -5 2 -10 12 -10 15 0 16 -2 3 -10 -8 -5
-10 -10 -4 -10 5 0 15 5 21 11 7 7 13 7 17 0 4 -5 13 -8 21 -5 7 3 25 -2 39
-11 24 -16 26 -16 26 -1 0 19 11 21 28 4 9 -9 12 -9 12 1 0 7 4 10 9 7 5 -3 7
-15 4 -26 -6 -23 7 -26 25 -8 10 10 15 10 22 -2 8 -13 10 -12 10 3 0 9 5 17
10 17 6 0 10 -7 10 -15 0 -8 5 -14 11 -12 6 1 13 -4 15 -11 1 -7 0 -8 -2 -3
-8 15 -33 1 -27 -15 3 -8 9 -12 13 -9 5 3 11 -9 15 -26 4 -17 13 -33 21 -36
10 -4 13 -15 10 -34 -2 -16 0 -29 5 -29 6 0 8 -4 4 -9 -3 -5 0 -13 7 -18 24
-14 38 -11 38 7 0 10 4 21 8 24 4 2 8 -6 8 -20 0 -13 -4 -24 -9 -24 -9 0 1
-41 12 -50 3 -3 13 -19 22 -36 23 -45 2 -76 -25 -38 -9 12 -15 14 -20 5 -4 -6
-12 -8 -18 -5 -7 4 -8 2 -4 -4 4 -7 16 -12 26 -12 11 0 24 -9 30 -21 15 -28 4
-37 -16 -13 -12 15 -15 15 -10 2 9 -29 -31 -53 -88 -52 -38 1 -45 0 -26 -6 16
-5 19 -8 8 -9 -19 -1 -41 -34 -31 -45 3 -3 -1 -6 -10 -6 -9 0 -17 -5 -17 -11
0 -5 5 -7 12 -3 7 4 8 3 4 -5 -4 -6 -12 -9 -17 -6 -5 4 -9 1 -9 -4 0 -6 -7
-11 -16 -11 -13 0 -15 7 -10 31 4 22 2 29 -7 26 -6 -2 -20 0 -29 4 -14 7 -16
5 -13 -12 3 -16 1 -18 -8 -10 -10 7 -18 5 -30 -9 -18 -21 -37 -26 -37 -10 0 6
-7 10 -15 10 -8 0 -15 -5 -15 -11 0 -5 -5 -7 -11 -3 -8 4 -4 13 12 25 13 10
20 19 14 19 -5 0 -2 5 8 11 9 5 17 15 17 20 0 6 -4 8 -9 4 -5 -3 -12 -1 -16 5
-9 15 -25 2 -18 -15 3 -10 -1 -15 -13 -15 -15 0 -16 -2 -5 -9 12 -7 12 -13 3
-24 -7 -7 -9 -17 -5 -20 3 -4 1 -7 -5 -7 -5 0 -17 -2 -25 -5 -15 -6 -17 -1
-21 65 -2 24 -8 46 -14 48 -7 2 -4 12 8 25 11 11 20 29 20 39 0 10 7 18 16 18
14 0 14 2 -1 16 -8 9 -22 13 -30 10 -8 -3 -15 -1 -15 4 0 6 4 10 9 10 10 0 8
60 -3 78 -4 7 -2 12 7 12 8 0 13 11 13 30 0 17 -3 30 -8 30 -4 0 -8 7 -8 15 0
8 6 15 13 15 8 0 7 4 -3 10 -8 5 -10 10 -4 10 7 0 11 19 10 49 0 27 1 48 4 46
3 -2 12 0 19 4 10 7 11 13 2 30 -12 22 -7 41 10 41 6 0 7 -4 4 -10z m255 -4
c0 -3 -4 -8 -10 -11 -5 -3 -10 -1 -10 4 0 6 5 11 10 11 6 0 10 -2 10 -4z m77
-108 c-3 -8 -6 -5 -6 6 -1 11 2 17 5 13 3 -3 4 -12 1 -19z m-606 -11 c-10 -9
-11 -8 -5 6 3 10 9 15 12 12 3 -3 0 -11 -7 -18z m-26 -57 c-3 -5 -11 -10 -16
-10 -6 0 -7 5 -4 10 3 6 11 10 16 10 6 0 7 -4 4 -10z m83 -24 c1 -20 -2 -22
-25 -18 -25 5 -25 6 -8 13 11 4 16 8 12 8 -10 1 1 21 11 21 4 0 9 -11 10 -24z
m52 -16 c0 -5 -5 -10 -11 -10 -5 0 -7 5 -4 10 3 6 8 10 11 10 2 0 4 -4 4 -10z
m-93 -42 c-3 -8 -6 -5 -6 6 -1 11 2 17 5 13 3 -3 4 -12 1 -19z m69 7 c-3 -9 2
-24 12 -34 17 -18 24 -35 25 -59 0 -7 6 -11 14 -8 19 8 16 -21 -4 -33 -16 -9
-16 -11 7 -20 14 -5 21 -10 16 -10 -5 -1 -4 -7 3 -14 8 -11 5 -13 -17 -9 -25
3 -27 1 -27 -30 0 -21 -4 -32 -12 -30 -7 1 -13 -2 -13 -8 0 -15 16 -12 30 5 7
8 16 12 21 10 4 -3 6 4 4 16 -2 12 -1 18 3 15 7 -7 8 -11 11 -37 1 -8 5 -9 14
0 14 11 27 6 27 -10 0 -5 -6 -6 -14 -3 -24 9 -27 -14 -4 -31 20 -13 21 -17 8
-26 -11 -8 -12 -12 -3 -15 16 -7 -5 -54 -24 -54 -7 0 -13 2 -13 4 0 2 -3 11
-6 20 -4 11 -1 16 10 16 9 0 16 4 16 9 0 5 3 17 6 25 5 12 2 15 -12 9 -12 -4
-15 -3 -10 5 4 7 1 12 -8 12 -9 0 -16 6 -16 13 -1 7 -6 5 -14 -5 -7 -10 -16
-15 -20 -11 -4 4 -11 2 -15 -5 -5 -9 -14 -10 -32 -3 -23 9 -23 10 -3 10 20 1
21 5 14 35 -4 19 -5 37 -2 40 3 4 1 6 -4 6 -5 0 -10 10 -11 21 -1 12 -9 29
-17 38 -19 21 -21 41 -5 41 24 0 49 42 44 72 -6 31 0 48 17 48 5 0 8 -7 4 -15z
m-64 -55 c9 -16 14 -31 11 -34 -10 -10 -33 15 -33 35 0 11 -7 19 -15 19 -8 0
-15 4 -15 9 0 19 36 -1 52 -29z m31 14 c-7 -19 -10 -18 -16 5 -3 13 -1 18 9
14 7 -2 10 -11 7 -19z m-68 -22 c-3 -8 -1 -20 4 -26 7 -8 5 -12 -7 -13 -12 -1
-17 7 -17 26 -1 17 5 28 13 28 7 0 10 -7 7 -15z m212 -66 c-5 -16 -27 -19 -27
-3 0 7 7 14 15 14 9 0 14 -5 12 -11z m-246 -53 c-11 -5 -11 -7 0 -14 11 -7 10
-9 -3 -9 -18 0 -23 11 -11 23 3 4 11 7 17 6 6 0 5 -3 -3 -6z m-201 -24 c0 -7
8 -18 18 -26 16 -13 15 -14 -5 -10 -13 3 -23 1 -23 -5 0 -5 -4 -6 -10 -3 -8 5
-8 28 -1 53 3 8 21 0 21 -9z m250 -32 c0 -5 -7 -4 -15 3 -8 7 -15 20 -15 29 1
13 3 13 15 -3 8 -11 15 -24 15 -29z m-310 -14 c0 -9 6 -13 15 -9 8 3 15 1 15
-4 0 -12 -37 -23 -50 -15 -11 7 -14 38 -4 48 10 10 24 -2 24 -20z m-52 -5 c20
-20 14 -28 -23 -28 -34 0 -34 1 -17 19 21 23 25 24 40 9z m955 -24 c9 -10 -4
-34 -18 -34 -8 0 -13 9 -12 20 1 19 17 27 30 14z m-503 -58 c0 -3 -4 -8 -10
-11 -5 -3 -10 -1 -10 4 0 6 5 11 10 11 6 0 10 -2 10 -4z m184 -21 c-4 -8 -11
-12 -16 -9 -6 4 -5 10 3 15 19 12 19 11 13 -6z m-461 -421 c29 -19 77 -54 108
-77 97 -73 208 -156 226 -171 10 -8 55 -42 100 -76 89 -66 103 -80 79 -80 -9
0 -16 6 -16 14 0 7 -8 16 -17 20 -10 3 -50 30 -90 59 -39 28 -118 86 -175 127
-56 41 -123 91 -148 110 -25 20 -70 56 -100 80 -64 50 -42 47 33 -6z m195
-106 c42 -29 88 -62 102 -75 14 -13 29 -23 35 -23 5 0 -2 12 -17 25 -16 13
-28 27 -28 30 0 7 94 -59 118 -82 7 -7 17 -13 20 -13 4 0 19 -10 32 -22 71
-64 112 -90 120 -78 5 9 9 9 14 1 4 -6 2 -11 -5 -11 -8 0 -8 -4 1 -15 17 -20
1 -19 -22 2 -10 9 -21 13 -25 9 -4 -4 -1 -11 7 -16 8 -5 11 -13 6 -17 -4 -4
-13 -1 -19 7 -14 17 -93 80 -101 80 -6 0 -25 15 -81 63 -18 15 -36 27 -40 27
-3 0 -12 6 -20 13 -20 19 -47 40 -85 67 -19 14 -42 30 -50 37 -8 7 -24 19 -35
27 -11 9 -16 16 -12 16 4 0 43 -23 85 -52z m337 -188 c3 -5 1 -10 -4 -10 -6 0
-11 5 -11 10 0 6 2 10 4 10 3 0 8 -4 11 -10z m1582 -26 c-3 -3 -12 -4 -19 -1
-8 3 -5 6 6 6 11 1 17 -2 13 -5z m-1467 -76 c0 -4 -4 -8 -10 -8 -5 0 -10 7
-10 15 0 8 -4 15 -10 15 -5 0 -10 5 -10 12 0 6 9 3 20 -7 11 -10 20 -22 20
-27z m40 12 c0 -5 -4 -10 -10 -10 -5 0 -10 5 -10 10 0 6 5 10 10 10 6 0 10 -4
10 -10z m70 -40 c0 -5 -2 -10 -4 -10 -3 0 -8 5 -11 10 -3 6 -1 10 4 10 6 0 11
-4 11 -10z m1360 -10 c8 -5 11 -10 5 -10 -5 0 -17 5 -25 10 -8 5 -10 10 -5 10
6 0 17 -5 25 -10z m-45 -22 c14 -6 25 -15 25 -20 0 -7 -31 8 -59 29 -10 7 10
2 34 -9z m-1358 -30 c41 -19 83 -32 106 -31 20 0 37 -3 37 -8 0 -5 7 -9 16 -9
12 0 15 -6 11 -21 -4 -15 1 -23 21 -30 14 -5 31 -8 38 -5 13 5 30 -11 21 -20
-6 -7 -107 18 -107 27 0 4 5 11 10 14 16 10 0 26 -20 20 -10 -3 -21 -1 -24 4
-4 6 -13 8 -21 5 -8 -3 -36 5 -62 19 -97 50 -113 59 -113 63 0 9 22 2 87 -28z
m-112 2 c3 -5 12 -7 20 -3 8 3 15 0 15 -6 0 -6 6 -11 13 -11 7 0 37 -12 65
-26 29 -14 70 -28 92 -31 26 -4 40 -11 40 -20 0 -11 -8 -13 -32 -8 -18 4 -37
11 -42 16 -6 5 -16 9 -23 9 -19 0 -93 34 -93 42 0 5 -8 8 -18 8 -10 0 -22 3
-26 8 -4 4 -13 7 -18 7 -6 0 -13 6 -15 13 -5 14 13 17 22 2z m188 3 c-7 -2
-19 -2 -25 0 -7 3 -2 5 12 5 14 0 19 -2 13 -5z m1354 -19 c-7 -7 -37 7 -37 17
0 6 9 5 21 -1 11 -7 19 -14 16 -16z m-76 -1 c19 -10 40 -18 47 -19 17 -3 27
-12 21 -19 -3 -2 -32 9 -65 25 -32 15 -54 29 -48 29 6 1 26 -7 45 -16z m-1473
-31 c2 -7 -2 -10 -12 -6 -9 3 -16 11 -16 16 0 13 23 5 28 -10z m-1266 -28 c93
-35 86 -50 -7 -17 -41 15 -75 30 -75 35 0 12 9 10 82 -18z m1364 -4 c35 -17
63 -36 61 -42 -1 -6 4 -13 11 -15 8 -3 10 1 5 13 -4 11 -2 15 7 12 7 -2 14
-14 15 -26 1 -18 -2 -21 -24 -15 -35 8 -41 12 -41 28 0 13 -75 55 -99 55 -5 0
-13 5 -16 10 -11 17 15 11 81 -20z m1403 9 c43 -15 40 -29 -4 -15 -19 6 -35
14 -35 18 0 10 1 10 39 -3z m-1504 -9 c3 -5 2 -10 -4 -10 -5 0 -13 5 -16 10
-3 6 -2 10 4 10 5 0 13 -4 16 -10z m1330 0 c3 -5 -1 -10 -9 -10 -9 0 -16 -4
-16 -10 0 -5 -7 -7 -16 -3 -15 6 -15 8 2 20 21 16 31 16 39 3z m108 -7 c25
-13 28 -18 15 -21 -10 -2 -18 -10 -18 -18 0 -8 -7 -14 -15 -14 -19 0 -19 9 0
30 14 16 14 18 1 23 -9 4 -18 2 -21 -3 -8 -13 -25 -13 -25 1 0 5 5 7 10 4 6
-3 10 -1 10 4 0 15 6 14 43 -6z m-1384 -9 c33 -16 36 -33 4 -19 -10 5 -22 9
-27 9 -9 1 -22 26 -13 26 2 0 18 -7 36 -16z m66 -24 c3 -5 -1 -10 -9 -10 -9 0
-16 5 -16 10 0 6 4 10 9 10 6 0 13 -4 16 -10z m1235 -15 c0 -12 -29 -3 -34 10
-4 13 -2 14 14 5 11 -6 20 -13 20 -15z m40 14 c0 -6 -7 -17 -15 -25 -16 -16
-19 -7 -9 20 7 18 24 22 24 5z m-1489 -19 c13 -10 19 -19 13 -20 -6 0 -17 7
-24 15 -7 8 -16 12 -21 9 -5 -3 -9 0 -9 5 0 16 15 13 41 -9z m49 10 c0 -5 -2
-10 -4 -10 -3 0 -8 5 -11 10 -3 6 -1 10 4 10 6 0 11 -4 11 -10z m115 -10 c10
-7 75 -24 132 -35 76 -15 98 -113 36 -159 -23 -17 -30 -17 -78 -6 -35 8 -55
19 -58 30 -2 10 -44 36 -96 61 -87 42 -109 59 -76 59 8 0 15 -4 15 -10 0 -5 9
-10 20 -10 11 0 20 -3 20 -8 0 -8 73 -42 90 -42 5 0 7 6 4 14 -3 8 0 17 5 21
15 9 4 25 -17 25 -19 0 -74 39 -56 40 6 0 14 -3 18 -7 3 -4 14 -9 24 -11 61
-13 72 -14 72 -1 0 7 -3 10 -6 6 -7 -6 -94 29 -109 44 -11 12 43 2 60 -11z
m195 10 c19 -6 50 -11 68 -12 33 -1 50 -12 34 -22 -5 -3 -24 -1 -43 3 -87 22
-92 23 -86 7 4 -9 2 -16 -3 -16 -6 0 -10 4 -10 9 0 5 -3 16 -6 25 -7 19 -1 20
46 6z m-430 -20 c0 -5 -4 -10 -10 -10 -5 0 -10 5 -10 10 0 6 5 10 10 10 6 0
10 -4 10 -10z m160 0 c0 -5 -4 -10 -10 -10 -5 0 -10 5 -10 10 0 6 5 10 10 10
6 0 10 -4 10 -10z m-120 -21 c0 -5 -4 -9 -10 -9 -5 0 -10 7 -10 16 0 8 5 12
10 9 6 -3 10 -10 10 -16z m540 11 c0 -5 -7 -10 -15 -10 -8 0 -15 5 -15 10 0 6
7 10 15 10 8 0 15 -4 15 -10z m-460 -10 c0 -5 -4 -10 -10 -10 -5 0 -10 5 -10
10 0 6 5 10 10 10 6 0 10 -4 10 -10z m1505 -8 c-3 -3 -11 0 -18 7 -9 10 -8 11
6 5 10 -3 15 -9 12 -12z m-1555 -8 c0 -8 -4 -12 -10 -9 -5 3 -10 10 -10 16 0
5 5 9 10 9 6 0 10 -7 10 -16z m118 -9 c23 -11 42 -25 42 -32 0 -19 -9 -16 -46
12 -18 14 -37 25 -43 25 -6 0 -11 5 -11 11 0 6 3 9 8 7 4 -2 26 -12 50 -23z
m-1100 3 c-2 -6 6 -22 19 -36 13 -14 20 -28 17 -31 -4 -3 -9 0 -11 7 -3 6 -11
12 -18 12 -11 0 -45 41 -45 55 0 3 9 5 21 5 11 0 19 -5 17 -12z m902 2 c0 -5
-4 -10 -9 -10 -6 0 -13 5 -16 10 -3 6 1 10 9 10 9 0 16 -4 16 -10z m550 -10
c0 -5 -4 -10 -9 -10 -6 0 -13 5 -16 10 -3 6 1 10 9 10 9 0 16 -4 16 -10z m67
-3 c3 -4 -8 -7 -25 -7 -18 0 -32 4 -32 9 0 11 46 8 57 -2z m-551 -17 c25 -12
42 -25 39 -29 -6 -10 -55 10 -55 22 0 4 -6 7 -14 7 -8 0 -18 5 -21 10 -9 14 1
13 51 -10z m-119 4 c-3 -3 -12 -4 -19 -1 -8 3 -5 6 6 6 11 1 17 -2 13 -5z
m621 -11 c60 -7 83 -24 25 -19 -64 6 -113 18 -120 29 -4 7 2 8 18 3 13 -4 48
-9 77 -13z m-1530 -23 c17 -16 32 -34 32 -40 0 -5 6 -10 13 -10 6 0 17 -11 24
-25 6 -14 9 -25 6 -25 -9 0 -93 91 -93 101 0 5 -7 9 -15 9 -8 0 -15 5 -15 10
0 17 13 11 48 -20z m947 20 c3 -5 2 -10 -4 -10 -5 0 -13 5 -16 10 -3 6 -2 10
4 10 5 0 13 -4 16 -10z m-1005 -14 c0 -8 7 -16 15 -20 8 -3 15 -10 15 -16 0
-5 -7 -10 -15 -10 -8 0 -15 6 -15 14 0 8 -7 17 -16 20 -8 3 -12 10 -9 16 9 15
25 12 25 -4z m1050 -9 c0 -6 3 -8 6 -4 3 3 21 -3 40 -14 19 -10 40 -19 46 -19
9 0 114 -47 127 -57 2 -2 2 -5 -1 -8 -2 -3 -20 3 -39 12 -19 10 -38 18 -44 18
-32 3 -164 69 -165 82 0 7 7 10 15 7 8 -4 15 -11 15 -17z m-1205 3 c3 -5 -3
-10 -15 -10 -12 0 -18 5 -15 10 3 6 10 10 15 10 5 0 12 -4 15 -10z m1099 -11
c-3 -5 -10 -7 -15 -3 -5 3 -7 10 -3 15 3 5 10 7 15 3 5 -3 7 -10 3 -15z m571
11 c3 -5 1 -10 -4 -10 -6 0 -11 5 -11 10 0 6 2 10 4 10 3 0 8 -4 11 -10z
m-350 -10 c3 -5 -1 -10 -9 -10 -9 0 -16 5 -16 10 0 6 4 10 9 10 6 0 13 -4 16
-10z m395 -10 c0 -5 -7 -7 -15 -4 -8 4 -12 10 -9 15 6 11 24 2 24 -11z m-566
3 c4 -5 13 -8 19 -8 5 0 12 -6 15 -12 2 -7 -3 -13 -12 -13 -9 0 -16 5 -16 10
0 6 -7 10 -15 10 -8 0 -15 5 -15 10 0 12 13 13 24 3z m663 -7 c3 -3 -15 -6
-41 -6 -26 0 -45 4 -42 9 7 10 73 8 83 -3z m-419 -18 c2 -4 12 -8 23 -8 10 0
19 -5 19 -11 0 -11 -38 -3 -54 12 -6 5 -18 9 -28 9 -10 0 -18 5 -18 10 0 12
53 1 58 -12z m-1088 2 c0 -6 12 -22 27 -36 14 -13 23 -27 20 -30 -6 -6 -26 11
-61 54 -17 19 -17 22 -3 22 10 0 17 -5 17 -10z m-263 -18 c0 -10 -7 -19 -14
-19 -7 0 -13 9 -13 19 0 10 6 18 14 18 8 0 14 -8 13 -18z m336 -3 c25 -28 12
-38 -13 -11 -11 12 -20 24 -20 27 0 12 17 4 33 -16z m847 5 c0 -17 -22 -14
-28 4 -2 7 3 12 12 12 9 0 16 -7 16 -16z m485 6 c3 -5 -1 -10 -9 -10 -9 0 -16
5 -16 10 0 6 4 10 9 10 6 0 13 -4 16 -10z m-1495 -10 c0 -5 -4 -10 -9 -10 -6
0 -13 5 -16 10 -3 6 1 10 9 10 9 0 16 -4 16 -10z m915 0 c3 -5 1 -10 -4 -10
-6 0 -11 5 -11 10 0 6 2 10 4 10 3 0 8 -4 11 -10z m625 6 c0 -11 -19 -15 -25
-6 -3 5 1 10 9 10 9 0 16 -2 16 -4z m40 0 c0 -3 -4 -8 -10 -11 -5 -3 -10 -1
-10 4 0 6 5 11 10 11 6 0 10 -2 10 -4z m40 -6 c0 -5 -7 -10 -15 -10 -8 0 -15
5 -15 10 0 6 7 10 15 10 8 0 15 -4 15 -10z m-920 -21 c0 -5 -4 -9 -10 -9 -5 0
-10 7 -10 16 0 8 5 12 10 9 6 -3 10 -10 10 -16z m356 6 c16 -8 37 -15 46 -15
9 0 20 -5 23 -10 4 -6 10 -8 15 -5 4 3 14 -3 21 -12 13 -15 11 -16 -16 -9 -40
9 -125 49 -125 59 0 10 4 9 36 -8z m-816 -15 c0 -5 -7 -7 -15 -4 -8 4 -12 10
-9 15 6 11 24 2 24 -11z m355 10 c3 -5 1 -10 -4 -10 -6 0 -11 5 -11 10 0 6 2
10 4 10 3 0 8 -4 11 -10z m165 -11 c0 -5 -4 -9 -10 -9 -5 0 -10 7 -10 16 0 8
5 12 10 9 6 -3 10 -10 10 -16z m190 11 c0 -5 -2 -10 -4 -10 -3 0 -8 5 -11 10
-3 6 -1 10 4 10 6 0 11 -4 11 -10z m535 0 c3 -5 -1 -10 -10 -10 -9 0 -13 5
-10 10 3 6 8 10 10 10 2 0 7 -4 10 -10z m-825 -21 c0 -5 -4 -9 -10 -9 -5 0
-10 7 -10 16 0 8 5 12 10 9 6 -3 10 -10 10 -16z m335 11 c3 -5 -1 -10 -9 -10
-9 0 -16 5 -16 10 0 6 4 10 9 10 6 0 13 -4 16 -10z m535 0 c0 -5 -4 -10 -9
-10 -6 0 -13 5 -16 10 -3 6 1 10 9 10 9 0 16 -4 16 -10z m90 0 c0 -5 -7 -10
-15 -10 -8 0 -15 5 -15 10 0 6 7 10 15 10 8 0 15 -4 15 -10z m-800 -14 c0 -8
7 -17 16 -20 8 -3 12 -10 9 -16 -9 -15 -22 -12 -29 8 -3 9 -9 23 -12 30 -3 6
-1 12 5 12 6 0 11 -6 11 -14z m755 4 c-3 -5 -12 -7 -20 -3 -21 7 -19 13 6 13
11 0 18 -4 14 -10z m-1609 -25 c5 -21 11 -24 28 -19 17 5 19 4 9 -7 -7 -7 -13
-21 -13 -31 0 -10 -4 -18 -10 -18 -5 0 -10 5 -10 10 0 6 -11 10 -25 10 -14 0
-25 5 -25 10 0 6 7 10 15 10 8 0 15 4 15 9 0 5 -10 7 -22 3 -11 -3 -19 -1 -16
4 3 5 8 17 11 27 9 25 36 21 43 -8z m64 -6 c6 -11 6 -20 1 -24 -5 -3 -12 4
-16 15 -3 11 -11 20 -16 20 -5 0 -9 4 -9 10 0 15 29 0 40 -21z m15 21 c3 -5 1
-10 -4 -10 -6 0 -11 5 -11 10 0 6 2 10 4 10 3 0 8 -4 11 -10z m155 0 c0 -5 -4
-10 -10 -10 -5 0 -10 5 -10 10 0 6 5 10 10 10 6 0 10 -4 10 -10z m415 0 c3 -5
1 -10 -4 -10 -6 0 -11 5 -11 10 0 6 2 10 4 10 3 0 8 -4 11 -10z m110 0 c3 -5
-1 -10 -9 -10 -9 0 -16 5 -16 10 0 6 4 10 9 10 6 0 13 -4 16 -10z m305 0 c0
-5 -2 -10 -4 -10 -3 0 -8 5 -11 10 -3 6 -1 10 4 10 6 0 11 -4 11 -10z m230 0
c0 -5 -7 -10 -15 -10 -8 0 -15 5 -15 10 0 6 7 10 15 10 8 0 15 -4 15 -10z
m137 4 c-3 -3 -12 -4 -19 -1 -8 3 -5 6 6 6 11 1 17 -2 13 -5z m38 -4 c3 -5 -1
-10 -9 -10 -9 0 -16 5 -16 10 0 6 4 10 9 10 6 0 13 -4 16 -10z m-1540 -10
c-27 -12 -43 -12 -25 0 8 5 22 9 30 9 10 0 8 -3 -5 -9z m365 0 c0 -5 -2 -10
-4 -10 -3 0 -8 5 -11 10 -3 6 -1 10 4 10 6 0 11 -4 11 -10z m67 -16 c-9 -9
-28 6 -21 18 4 6 10 6 17 -1 6 -6 8 -13 4 -17z m453 10 c0 -8 -4 -12 -10 -9
-5 3 -10 10 -10 16 0 5 5 9 10 9 6 0 10 -7 10 -16z m100 6 c0 -5 -2 -10 -4
-10 -3 0 -8 5 -11 10 -3 6 -1 10 4 10 6 0 11 -4 11 -10z m195 0 c3 -5 -1 -10
-9 -10 -9 0 -16 5 -16 10 0 6 4 10 9 10 6 0 13 -4 16 -10z m225 0 c0 -5 -7
-10 -15 -10 -8 0 -15 5 -15 10 0 6 7 10 15 10 8 0 15 -4 15 -10z m180 0 c0 -5
-4 -10 -9 -10 -6 0 -13 5 -16 10 -3 6 1 10 9 10 9 0 16 -4 16 -10z m45 0 c3
-5 -3 -10 -15 -10 -12 0 -18 5 -15 10 3 6 10 10 15 10 5 0 12 -4 15 -10z
m-1145 -16 c0 -8 -4 -12 -10 -9 -5 3 -10 10 -10 16 0 5 5 9 10 9 6 0 10 -7 10
-16z m830 6 c0 -5 -7 -10 -15 -10 -8 0 -15 5 -15 10 0 6 7 10 15 10 8 0 15 -4
15 -10z m130 0 c0 -5 -4 -10 -9 -10 -6 0 -13 5 -16 10 -3 6 1 10 9 10 9 0 16
-4 16 -10z m230 0 c0 -5 -7 -10 -15 -10 -8 0 -15 5 -15 10 0 6 7 10 15 10 8 0
15 -4 15 -10z m45 0 c-3 -5 -13 -10 -21 -10 -8 0 -12 5 -9 10 3 6 13 10 21 10
8 0 12 -4 9 -10z m-1161 -25 c19 -28 20 -35 6 -35 -5 0 -10 6 -10 14 0 8 -7
16 -15 20 -8 3 -15 10 -15 16 0 18 17 11 34 -15z m286 15 c0 -5 -4 -10 -10
-10 -5 0 -10 5 -10 10 0 6 5 10 10 10 6 0 10 -4 10 -10z m370 -15 c0 -25 -14
-33 -25 -15 -3 6 -15 10 -26 10 -11 0 -18 4 -15 9 3 4 18 6 32 3 19 -3 25 -1
20 7 -4 6 -2 11 3 11 6 0 11 -11 11 -25z m135 15 c3 -5 2 -10 -4 -10 -5 0 -13
5 -16 10 -3 6 -2 10 4 10 5 0 13 -4 16 -10z m145 0 c0 -5 -4 -10 -9 -10 -6 0
-13 5 -16 10 -3 6 1 10 9 10 9 0 16 -4 16 -10z m35 0 c3 -5 -1 -10 -10 -10 -9
0 -13 5 -10 10 3 6 8 10 10 10 2 0 7 -4 10 -10z m-1135 -10 c0 -5 -2 -10 -4
-10 -3 0 -8 5 -11 10 -3 6 -1 10 4 10 6 0 11 -4 11 -10z m210 0 c0 -5 -4 -10
-10 -10 -5 0 -10 5 -10 10 0 6 5 10 10 10 6 0 10 -4 10 -10z m410 0 c0 -5 -7
-10 -15 -10 -8 0 -15 5 -15 10 0 6 7 10 15 10 8 0 15 -4 15 -10z m240 0 c0 -5
-2 -10 -4 -10 -3 0 -8 5 -11 10 -3 6 -1 10 4 10 6 0 11 -4 11 -10z m135 0 c3
-5 -1 -10 -10 -10 -9 0 -13 5 -10 10 3 6 8 10 10 10 2 0 7 -4 10 -10z m-1211
-17 c-16 -12 -17 -15 -4 -23 13 -8 12 -10 -3 -10 -10 0 -15 -5 -12 -10 4 -6
15 -8 25 -5 10 3 22 0 26 -6 5 -9 2 -10 -9 -6 -9 3 -18 1 -21 -6 -3 -8 -8 -6
-16 6 -6 9 -16 15 -21 11 -6 -4 -5 -12 3 -22 9 -12 6 -11 -10 2 -25 22 -28 36
-8 36 8 0 18 5 22 11 5 9 -1 10 -21 5 l-29 -7 24 19 c13 11 35 20 49 20 24 0
24 -1 5 -15z m276 7 c0 -5 -4 -10 -10 -10 -5 0 -10 5 -10 10 0 6 5 10 10 10 6
0 10 -4 10 -10z m60 -11 c0 -5 -4 -9 -10 -9 -5 0 -10 7 -10 16 0 8 5 12 10 9
6 -3 10 -10 10 -16z m180 -36 c0 -7 5 -13 10 -13 6 0 10 -8 10 -17 0 -14 -6
-11 -24 12 -13 16 -22 33 -20 36 2 4 -3 10 -12 13 -8 3 -12 11 -8 17 8 13 43
-27 44 -48z m220 53 c0 -11 -19 -15 -25 -6 -3 5 1 10 9 10 9 0 16 -2 16 -4z
m151 -11 c0 -6 7 -14 15 -18 18 -10 18 -27 0 -27 -7 0 -16 8 -20 18 -3 9 -9
23 -12 31 -4 8 -2 12 6 10 6 -3 11 -9 11 -14z m366 9 c-3 -3 -12 -4 -19 -1 -8
3 -5 6 6 6 11 1 17 -2 13 -5z m308 -4 c-3 -5 -11 -10 -16 -10 -6 0 -7 5 -4 10
3 6 11 10 16 10 6 0 7 -4 4 -10z m-765 -10 c0 -5 -4 -10 -9 -10 -6 0 -13 5
-16 10 -3 6 1 10 9 10 9 0 16 -4 16 -10z m-240 -4 c0 -3 -4 -8 -10 -11 -5 -3
-10 -1 -10 4 0 6 5 11 10 11 6 0 10 -2 10 -4z m291 -9 c-1 -12 -15 -9 -19 4
-3 6 1 10 8 8 6 -3 11 -8 11 -12z m99 3 c0 -5 -2 -10 -4 -10 -3 0 -8 5 -11 10
-3 6 -1 10 4 10 6 0 11 -4 11 -10z m127 4 c-3 -3 -12 -4 -19 -1 -8 3 -5 6 6 6
11 1 17 -2 13 -5z m143 2 c0 -11 -19 -15 -25 -6 -3 5 1 10 9 10 9 0 16 -2 16
-4z m37 -22 c-9 -9 -28 6 -21 18 4 6 10 6 17 -1 6 -6 8 -13 4 -17z m246 12
c12 0 17 -9 18 -31 3 -55 4 -60 12 -72 5 -8 4 -13 -2 -13 -14 0 -20 13 -26 55
-6 51 -5 50 -67 53 -16 1 -28 7 -28 12 0 7 13 8 38 4 20 -4 45 -8 55 -8z
m-1693 -6 c0 -5 -4 -10 -9 -10 -6 0 -13 5 -16 10 -3 6 1 10 9 10 9 0 16 -4 16
-10z m650 -5 c0 -8 5 -15 10 -15 6 0 10 -8 10 -17 0 -15 -4 -13 -20 7 -22 28
-25 40 -10 40 6 0 10 -7 10 -15z m160 5 c0 -5 -4 -10 -9 -10 -6 0 -13 5 -16
10 -3 6 1 10 9 10 9 0 16 -4 16 -10z m505 0 c3 -5 1 -10 -4 -10 -6 0 -11 5
-11 10 0 6 2 10 4 10 3 0 8 -4 11 -10z m176 -3 c-1 -4 -1 -16 -1 -28 0 -12 -4
-17 -11 -14 -6 4 -8 13 -5 21 3 8 1 14 -5 14 -6 0 -7 5 -4 11 7 11 27 8 26 -4z
m-1406 -8 c4 -6 13 -8 21 -5 12 5 19 -6 12 -19 -2 -2 6 -11 17 -19 18 -14 18
-15 3 -16 -20 0 -24 -20 -7 -37 7 -7 7 -13 1 -17 -6 -3 -17 7 -25 24 -13 26
-13 30 -1 30 17 0 19 16 3 26 -6 3 -15 0 -20 -7 -6 -11 -11 -11 -21 -1 -9 9
-9 12 5 12 9 0 17 5 17 11 0 7 -11 8 -30 4 -32 -7 -44 10 -12 18 28 8 31 7 37
-4z m793 -24 c9 -17 21 -33 27 -37 5 -4 6 -10 2 -15 -9 -9 -46 35 -47 55 0 6
-4 12 -10 12 -5 0 -10 5 -10 11 0 19 21 4 38 -26z m662 -10 c6 -26 5 -35 -3
-32 -7 2 -12 9 -12 15 0 5 -3 13 -6 17 -4 3 -4 15 -2 26 7 26 13 19 23 -26z
m210 35 c0 -13 0 -12 16 -72 16 -63 16 -58 5 -58 -5 0 -16 29 -25 65 -19 76
-19 75 -6 75 6 0 10 -4 10 -10z m-1500 -10 c0 -5 -2 -10 -4 -10 -3 0 -8 5 -11
10 -3 6 -1 10 4 10 6 0 11 -4 11 -10z m374 -15 c9 -14 15 -25 13 -25 -2 0 -14
11 -27 25 -13 14 -19 25 -13 25 6 0 18 -11 27 -25z m146 15 c0 -5 -4 -10 -10
-10 -5 0 -10 5 -10 10 0 6 5 10 10 10 6 0 10 -4 10 -10z m186 -64 c5 -21 4
-27 -5 -22 -6 4 -11 14 -11 22 0 8 -4 14 -9 14 -5 0 -11 8 -15 18 -3 9 -9 24
-12 32 -4 8 5 4 19 -10 14 -14 29 -38 33 -54z m204 64 c0 -5 -4 -10 -10 -10
-5 0 -10 5 -10 10 0 6 5 10 10 10 6 0 10 -4 10 -10z m420 -11 c0 -5 -4 -9 -10
-9 -5 0 -10 7 -10 16 0 8 5 12 10 9 6 -3 10 -10 10 -16z m-1270 1 c0 -5 -4
-10 -10 -10 -5 0 -10 5 -10 10 0 6 5 10 10 10 6 0 10 -4 10 -10z m524 -7 c3
-10 9 -24 12 -30 13 -28 -16 -11 -30 17 -11 24 -12 30 -1 30 7 0 15 -8 19 -17z
m381 7 c3 -5 1 -10 -4 -10 -6 0 -11 5 -11 10 0 6 2 10 4 10 3 0 8 -4 11 -10z
m240 0 c3 -5 -1 -10 -9 -10 -9 0 -16 5 -16 10 0 6 4 10 9 10 6 0 13 -4 16 -10z
m172 -32 c13 -47 9 -65 -5 -27 -19 50 -23 69 -15 69 5 0 14 -19 20 -42z m43
12 c0 -16 -4 -30 -9 -30 -10 0 -21 47 -13 55 13 13 22 3 22 -25z m-690 10 c0
-5 -4 -10 -10 -10 -5 0 -10 5 -10 10 0 6 5 10 10 10 6 0 10 -4 10 -10z m94
-74 c15 -26 24 -51 21 -55 -9 -8 -35 29 -35 50 0 10 -3 19 -7 21 -5 2 -16 19
-27 38 l-19 35 21 -20 c11 -11 32 -42 46 -69z m46 74 c0 -5 -2 -10 -4 -10 -3
0 -8 5 -11 10 -3 6 -1 10 4 10 6 0 11 -4 11 -10z m-1310 -16 c0 -9 -5 -14 -12
-12 -18 6 -21 28 -4 28 9 0 16 -7 16 -16z m269 -46 c16 -27 48 -70 71 -94 23
-24 37 -44 31 -44 -11 0 -81 66 -81 77 0 3 -11 21 -25 38 -13 18 -22 35 -19
37 2 3 -2 11 -11 18 -8 7 -15 17 -15 22 0 18 21 -4 49 -54z m200 59 c-2 -2
-12 -9 -21 -16 -15 -11 -18 -11 -18 1 0 7 10 14 21 15 12 1 20 1 18 0z m520
-28 c18 -41 7 -48 -13 -8 -18 37 -19 39 -8 39 4 0 13 -14 21 -31z m388 5 c12
-26 12 -26 -7 -9 -20 18 -26 35 -12 35 4 0 12 -12 19 -26z m-832 -4 c10 -11
15 -20 11 -20 -4 0 -16 9 -28 20 -12 11 -17 20 -11 20 5 0 18 -9 28 -20z m880
10 c3 -5 1 -10 -4 -10 -6 0 -11 5 -11 10 0 6 2 10 4 10 3 0 8 -4 11 -10z m359
-30 c7 -24 6 -24 -8 -6 -9 11 -16 27 -16 35 0 21 16 2 24 -29z m-1364 20 c0
-5 -4 -10 -10 -10 -5 0 -10 5 -10 10 0 6 5 10 10 10 6 0 10 -4 10 -10z m80 0
c0 -5 -2 -10 -4 -10 -3 0 -8 5 -11 10 -3 6 -1 10 4 10 6 0 11 -4 11 -10z m85
0 c3 -5 1 -10 -4 -10 -6 0 -11 5 -11 10 0 6 2 10 4 10 3 0 8 -4 11 -10z m305
0 c0 -5 -2 -10 -4 -10 -3 0 -8 5 -11 10 -3 6 -1 10 4 10 6 0 11 -4 11 -10z
m304 -7 c3 -10 9 -24 12 -30 3 -7 1 -13 -4 -13 -5 0 -12 8 -16 18 -3 9 -9 23
-12 30 -3 6 -1 12 4 12 5 0 12 -8 16 -17z m110 -35 c-3 -4 -1 -8 4 -8 5 0 12
-8 16 -17 3 -10 9 -24 12 -30 3 -7 2 -13 -3 -13 -4 0 -19 24 -33 53 -33 70
-35 76 -12 47 11 -13 18 -28 16 -32z m-1176 8 c9 -16 34 -47 54 -70 20 -22 35
-42 33 -44 -9 -9 -125 123 -125 142 0 16 22 -1 38 -28z m262 24 c0 -5 -4 -10
-10 -10 -5 0 -10 5 -10 10 0 6 5 10 10 10 6 0 10 -4 10 -10z m140 -73 c0 -13
-69 65 -70 78 0 6 16 -8 35 -29 19 -22 35 -44 35 -49z m415 73 c3 -5 1 -10 -4
-10 -6 0 -11 5 -11 10 0 6 2 10 4 10 3 0 8 -4 11 -10z m545 6 c0 -3 -4 -8 -10
-11 -5 -3 -10 -1 -10 4 0 6 5 11 10 11 6 0 10 -2 10 -4z m-1130 -27 c0 -6 -4
-7 -10 -4 -5 3 -10 11 -10 16 0 6 5 7 10 4 6 -3 10 -11 10 -16z m127 -46 c10
-12 29 -36 43 -54 14 -18 38 -45 54 -61 16 -16 27 -31 24 -33 -7 -8 -73 60
-118 120 -24 33 -47 62 -52 63 -4 2 -8 11 -8 20 1 13 5 11 19 -8 11 -14 27
-35 38 -47z m43 46 c0 -6 -4 -7 -10 -4 -5 3 -10 11 -10 16 0 6 5 7 10 4 6 -3
10 -11 10 -16z m1010 11 c0 -5 -2 -10 -4 -10 -3 0 -8 5 -11 10 -3 6 -1 10 4
10 6 0 11 -4 11 -10z m-894 -47 c-6 -6 -46 30 -46 41 0 5 11 -1 25 -14 14 -13
23 -25 21 -27z m414 31 c0 -8 -4 -12 -10 -9 -5 3 -10 10 -10 16 0 5 5 9 10 9
6 0 10 -7 10 -16z m810 6 c0 -5 -2 -10 -4 -10 -3 0 -8 5 -11 10 -3 6 -1 10 4
10 6 0 11 -4 11 -10z m-1450 -10 c0 -10 8 -22 38 -55 6 -7 12 -17 12 -22 1 -4
19 -26 40 -48 21 -22 37 -41 35 -44 -6 -5 -105 97 -105 109 0 6 -4 10 -10 10
-5 0 -10 5 -10 12 0 6 -7 20 -17 30 -15 17 -15 18 0 18 10 0 17 -5 17 -10z
m550 0 c0 -5 -2 -10 -4 -10 -3 0 -8 5 -11 10 -3 6 -1 10 4 10 6 0 11 -4 11
-10z m148 -8 c6 -18 -15 -14 -22 4 -4 10 -1 14 6 12 6 -2 14 -10 16 -16z
m-528 -2 c0 -5 -2 -10 -4 -10 -3 0 -8 5 -11 10 -3 6 -1 10 4 10 6 0 11 -4 11
-10z m770 0 c0 -5 -4 -10 -10 -10 -5 0 -10 5 -10 10 0 6 5 10 10 10 6 0 10 -4
10 -10z m95 0 c3 -5 1 -10 -4 -10 -6 0 -11 5 -11 10 0 6 2 10 4 10 3 0 8 -4
11 -10z m-1047 -45 c17 -25 28 -45 24 -45 -10 0 -47 41 -61 68 -21 39 4 24 37
-23z m152 31 c0 -8 7 -16 15 -20 8 -3 15 -11 15 -17 0 -7 -11 -2 -25 11 -26
25 -32 40 -15 40 6 0 10 -6 10 -14z m195 -23 c19 -21 32 -39 30 -41 -3 -4 -23
15 -59 56 -33 38 -7 24 29 -15z m275 27 c0 -5 -2 -10 -4 -10 -3 0 -8 5 -11 10
-3 6 -1 10 4 10 6 0 11 -4 11 -10z m145 0 c3 -5 2 -10 -4 -10 -5 0 -13 5 -16
10 -3 6 -2 10 4 10 5 0 13 -4 16 -10z m240 -11 c-4 -5 -1 -9 4 -9 6 0 11 -8
11 -17 -1 -16 -2 -16 -15 1 -17 23 -20 50 -5 41 6 -4 8 -11 5 -16z m-330 1 c3
-5 2 -10 -4 -10 -5 0 -13 5 -16 10 -3 6 -2 10 4 10 5 0 13 -4 16 -10z m145 1
c0 -6 -4 -13 -10 -16 -5 -3 -10 1 -10 9 0 9 5 16 10 16 6 0 10 -4 10 -9z
m-615 -11 c3 -5 1 -10 -4 -10 -6 0 -11 5 -11 10 0 6 2 10 4 10 3 0 8 -4 11
-10z m90 0 c3 -5 2 -10 -4 -10 -5 0 -13 5 -16 10 -3 6 -2 10 4 10 5 0 13 -4
16 -10z m430 0 c3 -5 1 -10 -4 -10 -6 0 -11 5 -11 10 0 6 2 10 4 10 3 0 8 -4
11 -10z m249 -12 c8 -32 7 -38 -5 -38 -6 0 -9 7 -6 15 4 8 2 17 -3 20 -12 8
-13 25 -1 25 5 0 11 -10 15 -22z m86 12 c0 -5 -2 -10 -4 -10 -3 0 -8 5 -11 10
-3 6 -1 10 4 10 6 0 11 -4 11 -10z m-800 -7 c0 -5 19 -27 41 -51 23 -24 38
-46 34 -50 -3 -4 -11 1 -16 10 -5 9 -25 33 -44 52 -37 38 -41 46 -25 46 6 0
10 -3 10 -7z m530 -14 c0 -6 -4 -7 -10 -4 -5 3 -10 11 -10 16 0 6 5 7 10 4 6
-3 10 -11 10 -16z m425 1 c3 -5 1 -10 -4 -10 -6 0 -11 5 -11 10 0 6 2 10 4 10
3 0 8 -4 11 -10z m-1065 -10 c0 -5 -4 -10 -10 -10 -5 0 -10 5 -10 10 0 6 5 10
10 10 6 0 10 -4 10 -10z m85 0 c3 -5 1 -10 -4 -10 -6 0 -11 5 -11 10 0 6 2 10
4 10 3 0 8 -4 11 -10z m85 0 c0 -5 -2 -10 -4 -10 -3 0 -8 5 -11 10 -3 6 -1 10
4 10 6 0 11 -4 11 -10z m440 -11 c0 -6 -4 -7 -10 -4 -5 3 -10 11 -10 16 0 6 5
7 10 4 6 -3 10 -11 10 -16z m80 11 c0 -5 -4 -10 -10 -10 -5 0 -10 5 -10 10 0
6 5 10 10 10 6 0 10 -4 10 -10z m250 -38 c0 -7 -5 -10 -10 -7 -6 4 -8 10 -5
15 3 5 1 11 -5 15 -5 3 -10 12 -10 18 1 16 30 -23 30 -41z m100 -8 c0 -2 -3
-4 -7 -4 -10 0 -32 48 -25 54 4 5 32 -39 32 -50z m80 46 c0 -5 -4 -10 -10 -10
-5 0 -10 5 -10 10 0 6 5 10 10 10 6 0 10 -4 10 -10z m-370 -21 c0 -6 -4 -7
-10 -4 -5 3 -10 11 -10 16 0 6 5 7 10 4 6 -3 10 -11 10 -16z m-695 1 c3 -5 1
-10 -4 -10 -6 0 -11 5 -11 10 0 6 2 10 4 10 3 0 8 -4 11 -10z m835 0 c0 -5 -4
-10 -10 -10 -5 0 -10 5 -10 10 0 6 5 10 10 10 6 0 10 -4 10 -10z m90 0 c0 -5
-2 -10 -4 -10 -3 0 -8 5 -11 10 -3 6 -1 10 4 10 6 0 11 -4 11 -10z m95 0 c3
-5 1 -10 -4 -10 -6 0 -11 5 -11 10 0 6 2 10 4 10 3 0 8 -4 11 -10z m-1325 -16
c0 -14 -3 -14 -15 -4 -8 7 -15 14 -15 16 0 2 7 4 15 4 8 0 15 -7 15 -16z m295
-21 c48 -52 44 -67 -5 -18 -36 37 -48 55 -35 55 3 0 20 -17 40 -37z m78 16
c25 -28 12 -38 -13 -11 -11 12 -20 24 -20 27 0 12 17 4 33 -16z m77 11 c0 -5
-4 -10 -10 -10 -5 0 -10 5 -10 10 0 6 5 10 10 10 6 0 10 -4 10 -10z m85 0 c3
-5 1 -10 -4 -10 -6 0 -11 5 -11 10 0 6 2 10 4 10 3 0 8 -4 11 -10z m515 0 c0
-5 -4 -10 -10 -10 -5 0 -10 5 -10 10 0 6 5 10 10 10 6 0 10 -4 10 -10z m57
-26 c-9 -9 -28 6 -21 18 4 6 10 6 17 -1 6 -6 8 -13 4 -17z m-957 6 c0 -5 -4
-10 -10 -10 -5 0 -10 5 -10 10 0 6 5 10 10 10 6 0 10 -4 10 -10z m185 0 c3 -5
2 -10 -4 -10 -5 0 -13 5 -16 10 -3 6 -2 10 4 10 5 0 13 -4 16 -10z m260 0 c3
-5 2 -10 -4 -10 -5 0 -13 5 -16 10 -3 6 -2 10 4 10 5 0 13 -4 16 -10z m565
-11 c0 -5 -4 -9 -10 -9 -5 0 -10 7 -10 16 0 8 5 12 10 9 6 -3 10 -10 10 -16z
m90 0 c0 -6 -4 -7 -10 -4 -5 3 -10 11 -10 16 0 6 5 7 10 4 6 -3 10 -11 10 -16z
m-1220 1 c0 -5 -4 -10 -10 -10 -5 0 -10 5 -10 10 0 6 5 10 10 10 6 0 10 -4 10
-10z m445 0 c3 -5 2 -10 -4 -10 -5 0 -13 5 -16 10 -3 6 -2 10 4 10 5 0 13 -4
16 -10z m80 0 c3 -5 1 -10 -4 -10 -6 0 -11 5 -11 10 0 6 2 10 4 10 3 0 8 -4
11 -10z m655 -16 c0 -8 -5 -12 -10 -9 -6 4 -8 11 -5 16 9 14 15 11 15 -7z m90
6 c0 -5 -4 -10 -10 -10 -5 0 -10 5 -10 10 0 6 5 10 10 10 6 0 10 -4 10 -10z
m90 0 c0 -5 -2 -10 -4 -10 -3 0 -8 5 -11 10 -3 6 -1 10 4 10 6 0 11 -4 11 -10z
m-1007 -35 c19 -19 32 -35 29 -35 -9 0 -72 56 -72 64 0 11 8 6 43 -29z m147
25 c0 -5 -2 -10 -4 -10 -3 0 -8 5 -11 10 -3 6 -1 10 4 10 6 0 11 -4 11 -10z
m90 0 c0 -5 -2 -10 -4 -10 -3 0 -8 5 -11 10 -3 6 -1 10 4 10 6 0 11 -4 11 -10z
m907 -12 c-3 -8 -6 -5 -6 6 -1 11 2 17 5 13 3 -3 4 -12 1 -19z m-1101 -13 c15
-14 23 -25 17 -25 -5 0 -20 11 -33 25 -13 14 -21 25 -17 25 3 0 18 -11 33 -25z
m79 15 c3 -5 1 -10 -4 -10 -6 0 -11 5 -11 10 0 6 2 10 4 10 3 0 8 -4 11 -10z
m760 0 c3 -5 1 -10 -4 -10 -6 0 -11 5 -11 10 0 6 2 10 4 10 3 0 8 -4 11 -10z
m85 0 c0 -5 -2 -10 -4 -10 -3 0 -8 5 -11 10 -3 6 -1 10 4 10 6 0 11 -4 11 -10z
m100 6 c0 -3 -4 -8 -10 -11 -5 -3 -10 -1 -10 4 0 6 5 11 10 11 6 0 10 -2 10
-4z m-45 -16 c3 -5 1 -10 -4 -10 -6 0 -11 5 -11 10 0 6 2 10 4 10 3 0 8 -4 11
-10z m90 0 c3 -5 1 -10 -4 -10 -6 0 -11 5 -11 10 0 6 2 10 4 10 3 0 8 -4 11
-10z m170 0 c3 -5 1 -10 -4 -10 -6 0 -11 5 -11 10 0 6 2 10 4 10 3 0 8 -4 11
-10z m-1190 -10 c3 -5 2 -10 -4 -10 -5 0 -13 5 -16 10 -3 6 -2 10 4 10 5 0 13
-4 16 -10z m845 0 c0 -5 -2 -10 -4 -10 -3 0 -8 5 -11 10 -3 6 -1 10 4 10 6 0
11 -4 11 -10z m-965 -10 c3 -5 1 -10 -4 -10 -6 0 -11 5 -11 10 0 6 2 10 4 10
3 0 8 -4 11 -10z m180 0 c3 -5 2 -10 -4 -10 -5 0 -13 5 -16 10 -3 6 -2 10 4
10 5 0 13 -4 16 -10z m925 0 c0 -5 -4 -10 -10 -10 -5 0 -10 5 -10 10 0 6 5 10
10 10 6 0 10 -4 10 -10z m85 0 c3 -5 1 -10 -4 -10 -6 0 -11 5 -11 10 0 6 2 10
4 10 3 0 8 -4 11 -10z m-120 -20 c3 -5 1 -10 -4 -10 -6 0 -11 5 -11 10 0 6 2
10 4 10 3 0 8 -4 11 -10z m260 0 c3 -5 1 -10 -4 -10 -6 0 -11 5 -11 10 0 6 2
10 4 10 3 0 8 -4 11 -10z m85 0 c0 -5 -4 -10 -10 -10 -5 0 -10 5 -10 10 0 6 5
10 10 10 6 0 10 -4 10 -10z m-1205 -10 c3 -6 -1 -7 -9 -4 -18 7 -21 14 -7 14
6 0 13 -4 16 -10z m1085 -10 c0 -5 -2 -10 -4 -10 -3 0 -8 5 -11 10 -3 6 -1 10
4 10 6 0 11 -4 11 -10z m85 0 c3 -5 1 -10 -4 -10 -6 0 -11 5 -11 10 0 6 2 10
4 10 3 0 8 -4 11 -10z m95 -11 c0 -6 -4 -7 -10 -4 -5 3 -10 11 -10 16 0 6 5 7
10 4 6 -3 10 -11 10 -16z m-40 -10 c0 -6 -4 -7 -10 -4 -5 3 -10 11 -10 16 0 6
5 7 10 4 6 -3 10 -11 10 -16z m-35 -9 c3 -5 1 -10 -4 -10 -6 0 -11 5 -11 10 0
6 2 10 4 10 3 0 8 -4 11 -10z m-1195 -26 c0 -2 -7 -4 -15 -4 -8 0 -15 4 -15
10 0 5 7 7 15 4 8 -4 15 -8 15 -10z m-4 -23 c-14 -5 -16 -10 -7 -15 6 -4 23
-1 36 8 14 9 26 12 30 6 3 -5 -6 -12 -20 -16 -31 -8 -31 -9 0 -42 44 -48 27
-46 -21 2 -32 33 -51 45 -64 41 -10 -3 -22 0 -26 6 -5 9 -2 10 9 6 9 -3 19 -2
22 3 4 6 18 10 33 9 23 0 24 -2 8 -8z m-186 -21 c-20 -13 -43 -13 -35 0 4 6
10 8 15 5 5 -3 12 0 15 6 4 5 10 8 13 4 4 -3 0 -10 -8 -15z m310 1 c0 -5 -6
-11 -12 -14 -10 -3 -10 -7 1 -20 19 -24 5 -21 -19 3 -24 24 -25 31 -5 24 8 -4
15 -1 15 5 0 6 5 11 10 11 6 0 10 -4 10 -9z m-234 -13 c5 -8 2 -9 -9 -5 -10 3
-17 3 -17 -2 0 -13 -36 -20 -51 -9 -11 8 -11 9 1 5 9 -3 24 1 35 9 23 17 32
18 41 2z m174 -8 c0 -5 -4 -10 -10 -10 -5 0 -10 5 -10 10 0 6 5 10 10 10 6 0
10 -4 10 -10z m120 0 c0 -5 -2 -10 -4 -10 -3 0 -8 5 -11 10 -3 6 -1 10 4 10 6
0 11 -4 11 -10z m-566 -43 c43 -54 28 -53 -19 0 -21 26 -33 44 -25 41 8 -2 27
-21 44 -41z m66 22 c0 -14 -17 -10 -23 5 -4 10 -1 13 9 9 7 -3 14 -9 14 -14z
m248 7 c-7 -7 -19 -11 -25 -9 -7 3 -13 0 -13 -6 0 -6 -4 -11 -10 -11 -21 0 -9
19 18 28 38 14 45 14 30 -2z m217 4 c3 -5 1 -10 -4 -10 -6 0 -11 5 -11 10 0 6
2 10 4 10 3 0 8 -4 11 -10z m120 0 c3 -5 1 -10 -4 -10 -6 0 -11 5 -11 10 0 6
2 10 4 10 3 0 8 -4 11 -10z m85 -10 c0 -5 -2 -10 -4 -10 -3 0 -8 5 -11 10 -3
6 -1 10 4 10 6 0 11 -4 11 -10z m-910 -71 c0 -5 3 -9 8 -9 8 0 34 -51 29 -57
-2 -2 -19 18 -37 45 -19 26 -40 51 -47 55 -7 4 -13 16 -13 25 0 12 8 7 30 -16
17 -18 30 -37 30 -43z m120 60 c0 -6 -7 -9 -15 -5 -8 3 -15 1 -15 -4 0 -15 20
-22 33 -12 8 7 19 1 35 -19 27 -33 16 -40 -12 -8 -15 18 -20 19 -27 8 -6 -11
-12 -9 -30 10 -16 17 -24 20 -29 11 -5 -7 -13 -9 -21 -4 -9 5 -3 11 22 20 44
16 59 17 59 3z m530 -10 c0 -6 -4 -7 -10 -4 -5 3 -10 11 -10 16 0 6 5 7 10 4
6 -3 10 -11 10 -16z m120 0 c0 -6 -4 -7 -10 -4 -5 3 -10 11 -10 16 0 6 5 7 10
4 6 -3 10 -11 10 -16z m110 11 c0 -5 -2 -10 -4 -10 -3 0 -8 5 -11 10 -3 6 -1
10 4 10 6 0 11 -4 11 -10z m118 -15 c6 -14 10 -25 8 -25 -2 0 -11 11 -20 25
-9 14 -13 25 -8 25 5 0 14 -11 20 -25z m102 15 c0 -5 -2 -10 -4 -10 -3 0 -8 5
-11 10 -3 6 -1 10 4 10 6 0 11 -4 11 -10z m178 -15 c-3 -3 -9 2 -12 12 -6 14
-5 15 5 6 7 -7 10 -15 7 -18z m-978 5 c0 -5 -2 -10 -4 -10 -3 0 -8 5 -11 10
-3 6 -1 10 4 10 6 0 11 -4 11 -10z m115 0 c3 -5 1 -10 -4 -10 -6 0 -11 5 -11
10 0 6 2 10 4 10 3 0 8 -4 11 -10z m325 -11 c0 -6 -4 -7 -10 -4 -5 3 -10 11
-10 16 0 6 5 7 10 4 6 -3 10 -11 10 -16z m2422 -1 c-7 -7 -12 -8 -12 -2 0 14
12 26 19 19 2 -3 -1 -11 -7 -17z m-2881 -10 c28 -34 23 -47 -6 -16 -14 15 -25
30 -25 33 0 11 13 4 31 -17z m224 12 c3 -5 1 -10 -4 -10 -6 0 -11 5 -11 10 0
6 2 10 4 10 3 0 8 -4 11 -10z m200 0 c3 -5 2 -10 -4 -10 -5 0 -13 5 -16 10 -3
6 -2 10 4 10 5 0 13 -4 16 -10z m110 0 c3 -5 1 -10 -4 -10 -6 0 -11 5 -11 10
0 6 2 10 4 10 3 0 8 -4 11 -10z m115 0 c0 -5 -4 -10 -10 -10 -5 0 -10 5 -10
10 0 6 5 10 10 10 6 0 10 -4 10 -10z m215 0 c3 -5 1 -10 -4 -10 -6 0 -11 5
-11 10 0 6 2 10 4 10 3 0 8 -4 11 -10z m-790 -10 c3 -5 1 -10 -4 -10 -6 0 -11
5 -11 10 0 6 2 10 4 10 3 0 8 -4 11 -10z m120 0 c3 -5 1 -10 -4 -10 -6 0 -11
5 -11 10 0 6 2 10 4 10 3 0 8 -4 11 -10z m115 0 c0 -5 -2 -10 -4 -10 -3 0 -8
5 -11 10 -3 6 -1 10 4 10 6 0 11 -4 11 -10z m84 -5 c3 -8 1 -15 -4 -15 -6 0
-10 7 -10 15 0 8 2 15 4 15 2 0 6 -7 10 -15z m226 -1 c0 -8 -4 -12 -10 -9 -5
3 -10 10 -10 16 0 5 5 9 10 9 6 0 10 -7 10 -16z m325 6 c3 -5 1 -10 -4 -10 -6
0 -11 5 -11 10 0 6 2 10 4 10 3 0 8 -4 11 -10z m-871 -53 c15 -21 26 -40 24
-43 -5 -5 -68 80 -68 92 0 9 6 2 44 -49z m120 1 c15 -21 23 -38 19 -38 -9 0
-63 74 -63 86 0 9 7 2 44 -48z m86 42 c0 -5 -2 -10 -4 -10 -3 0 -8 5 -11 10
-3 6 -1 10 4 10 6 0 11 -4 11 -10z m230 0 c0 -5 -2 -10 -4 -10 -3 0 -8 5 -11
10 -3 6 -1 10 4 10 6 0 11 -4 11 -10z m80 -11 c0 -6 -4 -7 -10 -4 -5 3 -10 11
-10 16 0 6 5 7 10 4 6 -3 10 -11 10 -16z m-775 -15 c17 -26 15 -41 -4 -29 -6
3 -11 13 -11 21 0 8 -4 14 -10 14 -5 0 -10 5 -10 10 0 18 17 10 35 -16z m320
16 c3 -5 1 -10 -4 -10 -6 0 -11 5 -11 10 0 6 2 10 4 10 3 0 8 -4 11 -10z m116
-7 c13 -16 12 -17 -3 -4 -10 7 -18 15 -18 17 0 8 8 3 21 -13z m119 -4 c0 -6
-4 -7 -10 -4 -5 3 -10 11 -10 16 0 6 5 7 10 4 6 -3 10 -11 10 -16z m110 11 c0
-5 -4 -10 -10 -10 -5 0 -10 5 -10 10 0 6 5 10 10 10 6 0 10 -4 10 -10z m230 6
c0 -3 -4 -8 -10 -11 -5 -3 -10 -1 -10 4 0 6 5 11 10 11 6 0 10 -2 10 -4z m180
-17 c0 -5 -4 -9 -10 -9 -5 0 -10 7 -10 16 0 8 5 12 10 9 6 -3 10 -10 10 -16z
m30 11 c0 -5 -2 -10 -4 -10 -3 0 -8 5 -11 10 -3 6 -1 10 4 10 6 0 11 -4 11
-10z m-810 -21 c0 -6 -4 -7 -10 -4 -5 3 -10 11 -10 16 0 6 5 7 10 4 6 -3 10
-11 10 -16z m105 11 c3 -5 1 -10 -4 -10 -6 0 -11 5 -11 10 0 6 2 10 4 10 3 0
8 -4 11 -10z m345 0 c0 -5 -2 -10 -4 -10 -3 0 -8 5 -11 10 -3 6 -1 10 4 10 6
0 11 -4 11 -10z m-1008 -42 c20 -24 35 -45 32 -47 -5 -6 -83 70 -84 82 0 16
17 5 52 -35z m98 32 c0 -5 -4 -10 -10 -10 -5 0 -10 5 -10 10 0 6 5 10 10 10 6
0 10 -4 10 -10z m210 0 c0 -5 -4 -10 -10 -10 -5 0 -10 5 -10 10 0 6 5 10 10
10 6 0 10 -4 10 -10z m125 0 c3 -5 2 -10 -4 -10 -5 0 -13 5 -16 10 -3 6 -2 10
4 10 5 0 13 -4 16 -10z m545 -11 c0 -6 -4 -7 -10 -4 -5 3 -10 11 -10 16 0 6 5
7 10 4 6 -3 10 -11 10 -16z m-915 1 c3 -5 2 -10 -4 -10 -5 0 -13 5 -16 10 -3
6 -2 10 4 10 5 0 13 -4 16 -10z m339 -6 c4 -10 1 -14 -6 -12 -15 5 -23 28 -10
28 5 0 13 -7 16 -16z m206 -5 c0 -6 -4 -7 -10 -4 -5 3 -10 11 -10 16 0 6 5 7
10 4 6 -3 10 -11 10 -16z m150 11 c0 -5 -2 -10 -4 -10 -3 0 -8 5 -11 10 -3 6
-1 10 4 10 6 0 11 -4 11 -10z m304 -5 c3 -8 1 -15 -4 -15 -6 0 -10 7 -10 15 0
8 2 15 4 15 2 0 6 -7 10 -15z m111 5 c3 -5 1 -10 -4 -10 -6 0 -11 5 -11 10 0
6 2 10 4 10 3 0 8 -4 11 -10z m-805 -21 c0 -6 -4 -7 -10 -4 -5 3 -10 11 -10
16 0 6 5 7 10 4 6 -3 10 -11 10 -16z m120 11 c0 -5 -4 -10 -10 -10 -5 0 -10 5
-10 10 0 6 5 10 10 10 6 0 10 -4 10 -10z m214 -22 c20 -39 20 -49 0 -23 -26
33 -36 55 -25 55 5 0 17 -14 25 -32z m136 22 c0 -5 -2 -10 -4 -10 -3 0 -8 5
-11 10 -3 6 -1 10 4 10 6 0 11 -4 11 -10z m110 0 c0 -5 -2 -10 -4 -10 -3 0 -8
5 -11 10 -3 6 -1 10 4 10 6 0 11 -4 11 -10z m78 -15 c-3 -3 -9 2 -12 12 -6 14
-5 15 5 6 7 -7 10 -15 7 -18z m332 4 c0 -6 -4 -7 -10 -4 -5 3 -10 11 -10 16 0
6 5 7 10 4 6 -3 10 -11 10 -16z m30 11 c0 -5 -2 -10 -4 -10 -3 0 -8 5 -11 10
-3 6 -1 10 4 10 6 0 11 -4 11 -10z m1805 0 c3 -5 1 -10 -4 -10 -6 0 -11 5 -11
10 0 6 2 10 4 10 3 0 8 -4 11 -10z m-2955 -10 c0 -5 -4 -10 -10 -10 -5 0 -10
5 -10 10 0 6 5 10 10 10 6 0 10 -4 10 -10z m94 -6 c4 -10 1 -14 -6 -12 -15 5
-23 28 -10 28 5 0 13 -7 16 -16z m126 -5 c0 -6 -4 -7 -10 -4 -5 3 -10 11 -10
16 0 6 5 7 10 4 6 -3 10 -11 10 -16z m120 11 c0 -5 -4 -10 -10 -10 -5 0 -10 5
-10 10 0 6 5 10 10 10 6 0 10 -4 10 -10z m340 0 c0 -5 -2 -10 -4 -10 -3 0 -8
5 -11 10 -3 6 -1 10 4 10 6 0 11 -4 11 -10z m225 0 c3 -5 1 -10 -4 -10 -6 0
-11 5 -11 10 0 6 2 10 4 10 3 0 8 -4 11 -10z m-1050 -10 c3 -5 -1 -10 -9 -10
-9 0 -16 5 -16 10 0 6 4 10 9 10 6 0 13 -4 16 -10z m1020 0 c3 -5 1 -10 -4
-10 -6 0 -11 5 -11 10 0 6 2 10 4 10 3 0 8 -4 11 -10z m-1126 -25 c13 -14 18
-25 12 -25 -13 0 -51 31 -51 42 0 15 15 8 39 -17z m319 6 c3 -8 -1 -12 -9 -9
-7 2 -15 10 -17 17 -3 8 1 12 9 9 7 -2 15 -10 17 -17z m122 9 c0 -5 -4 -10
-10 -10 -5 0 -10 5 -10 10 0 6 5 10 10 10 6 0 10 -4 10 -10z m80 -11 c0 -6 -4
-7 -10 -4 -5 3 -10 11 -10 16 0 6 5 7 10 4 6 -3 10 -11 10 -16z m124 6 c3 -8
1 -15 -4 -15 -6 0 -10 7 -10 15 0 8 2 15 4 15 2 0 6 -7 10 -15z m116 -6 c0 -6
-4 -7 -10 -4 -5 3 -10 11 -10 16 0 6 5 7 10 4 6 -3 10 -11 10 -16z m220 11 c0
-5 -2 -10 -4 -10 -3 0 -8 5 -11 10 -3 6 -1 10 4 10 6 0 11 -4 11 -10z m225 0
c3 -5 1 -10 -4 -10 -6 0 -11 5 -11 10 0 6 2 10 4 10 3 0 8 -4 11 -10z m110 0
c3 -5 1 -10 -4 -10 -6 0 -11 5 -11 10 0 6 2 10 4 10 3 0 8 -4 11 -10z m2170 0
c3 -5 1 -10 -4 -10 -6 0 -11 5 -11 10 0 6 2 10 4 10 3 0 8 -4 11 -10z m-3207
-18 c6 -18 -15 -14 -22 4 -4 10 -1 14 6 12 6 -2 14 -10 16 -16z m122 2 c0 -8
-4 -12 -10 -9 -5 3 -10 10 -10 16 0 5 5 9 10 9 6 0 10 -7 10 -16z m657 -6 c-3
-8 -6 -5 -6 6 -1 11 2 17 5 13 3 -3 4 -12 1 -19z m441 -3 c-3 -3 -9 2 -12 12
-6 14 -5 15 5 6 7 -7 10 -15 7 -18z m112 15 c0 -5 -2 -10 -4 -10 -3 0 -8 5
-11 10 -3 6 -1 10 4 10 6 0 11 -4 11 -10z m1810 0 c0 -5 -5 -10 -11 -10 -5 0
-7 5 -4 10 3 6 8 10 11 10 2 0 4 -4 4 -10z m-3265 -10 c3 -5 1 -10 -4 -10 -6
0 -11 5 -11 10 0 6 2 10 4 10 3 0 8 -4 11 -10z m335 -6 c0 -8 -4 -12 -10 -9
-5 3 -10 10 -10 16 0 5 5 9 10 9 6 0 10 -7 10 -16z m120 6 c0 -5 -4 -10 -10
-10 -5 0 -10 5 -10 10 0 6 5 10 10 10 6 0 10 -4 10 -10z m527 -12 c-3 -8 -6
-5 -6 6 -1 11 2 17 5 13 3 -3 4 -12 1 -19z m453 1 c0 -6 -4 -7 -10 -4 -5 3
-10 11 -10 16 0 6 5 7 10 4 6 -3 10 -11 10 -16z m-1220 1 c0 -5 -4 -10 -10
-10 -5 0 -10 5 -10 10 0 6 5 10 10 10 6 0 10 -4 10 -10z m445 0 c3 -5 1 -10
-4 -10 -6 0 -11 5 -11 10 0 6 2 10 4 10 3 0 8 -4 11 -10z"/>
<path d="M3245 3110 c-3 -5 -1 -10 4 -10 6 0 11 5 11 10 0 6 -2 10 -4 10 -3 0
-8 -4 -11 -10z"/>
<path d="M3245 3050 c3 -5 8 -10 11 -10 2 0 4 5 4 10 0 6 -5 10 -11 10 -5 0
-7 -4 -4 -10z"/>
<path d="M3116 3022 c-3 -5 1 -9 9 -9 8 0 12 4 9 9 -3 4 -7 8 -9 8 -2 0 -6 -4
-9 -8z"/>
<path d="M3129 2542 c-7 -9 -9 -14 -5 -10 5 4 15 3 23 -3 10 -9 13 -8 13 4 0
24 -16 29 -31 9z"/>
<path d="M3220 2164 c0 -8 5 -12 10 -9 6 4 8 11 5 16 -9 14 -15 11 -15 -7z"/>
<path d="M3327 2164 c-8 -8 3 -34 14 -34 5 0 9 9 9 20 0 19 -11 26 -23 14z"/>
<path d="M3192 2147 c-7 -8 -7 -18 -2 -27 6 -8 10 -10 11 -5 0 6 2 18 4 28 4
20 1 21 -13 4z"/>
<path d="M3360 2148 c0 -4 6 -8 14 -8 8 0 17 4 20 8 2 4 -4 8 -15 8 -10 0 -19
-4 -19 -8z"/>
<path d="M2931 1357 c72 -60 169 -131 174 -125 4 4 -65 62 -144 120 -43 33
-67 37 -30 5z"/>
<path d="M3312 849 c2 -17 12 -25 36 -30 31 -6 33 -5 30 20 -2 21 -9 27 -36
29 -30 3 -33 1 -30 -19z"/>
<path d="M1960 730 c0 -5 7 -10 16 -10 8 0 12 5 9 10 -3 6 -10 10 -16 10 -5 0
-9 -4 -9 -10z"/>
<path d="M2470 5441 c0 -5 5 -13 10 -16 6 -3 10 -2 10 4 0 5 -4 13 -10 16 -5
3 -10 2 -10 -4z"/>
<path d="M3135 5310 c3 -5 8 -10 11 -10 2 0 4 5 4 10 0 6 -5 10 -11 10 -5 0
-7 -4 -4 -10z"/>
<path d="M3110 5265 c14 -17 30 -20 30 -4 0 5 -4 7 -10 4 -5 -3 -10 -1 -10 4
0 6 -5 11 -11 11 -8 0 -8 -5 1 -15z"/>
<path d="M4206 5236 c10 -8 21 -12 24 -10 5 6 -21 24 -34 24 -6 0 -1 -6 10
-14z"/>
<path d="M3082 5198 l-12 -33 20 25 c21 27 25 40 12 40 -4 0 -13 -15 -20 -32z"/>
<path d="M3133 5193 c-10 -10 -17 -17 -14 -16 2 2 11 -3 20 -10 14 -11 15 -10
1 7 -14 18 -13 18 10 12 17 -5 21 -4 11 2 -11 8 -11 10 0 15 8 3 9 6 3 6 -7 1
-20 -7 -31 -16z"/>
<path d="M3099 5113 c-1 -5 -1 -11 0 -15 0 -5 -6 -8 -15 -8 -8 0 -12 -5 -8
-11 4 -8 9 -8 17 0 11 11 19 41 11 41 -2 0 -5 -3 -5 -7z"/>
<path d="M3126 5084 c-4 -9 -4 -19 -1 -22 2 -3 7 3 11 12 4 9 4 19 1 22 -2 3
-7 -3 -11 -12z"/>
<path d="M3140 5056 c0 -5 31 -66 34 -66 10 0 -9 60 -20 64 -8 3 -14 4 -14 2z"/>
<path d="M3108 5033 c7 -3 16 -2 19 1 4 3 -2 6 -13 5 -11 0 -14 -3 -6 -6z"/>
<path d="M3136 5003 c-6 -14 -5 -15 5 -6 7 7 10 15 7 18 -3 3 -9 -2 -12 -12z"/>
<path d="M3200 4994 c0 -8 6 -11 15 -8 8 4 15 9 15 13 0 4 -7 8 -15 8 -8 0
-15 -6 -15 -13z"/>
<path d="M3170 4929 c0 -5 5 -7 10 -4 6 3 10 8 10 11 0 2 -4 4 -10 4 -5 0 -10
-5 -10 -11z"/>
<path d="M1823 4748 c-3 -40 2 -44 27 -28 13 8 12 10 -2 10 -22 0 -23 14 -3
33 12 13 12 15 -3 19 -14 4 -17 -3 -19 -34z"/>
<path d="M3346 4724 c-16 -15 -13 -34 4 -34 5 0 14 9 20 19 13 26 -3 36 -24
15z"/>
<path d="M1900 4721 c0 -5 9 -7 20 -4 11 3 20 7 20 9 0 2 -9 4 -20 4 -11 0
-20 -4 -20 -9z"/>
<path d="M1845 4700 c-3 -5 -1 -10 4 -10 6 0 11 5 11 10 0 6 -2 10 -4 10 -3 0
-8 -4 -11 -10z"/>
<path d="M1850 4662 c0 -16 4 -21 13 -16 8 5 8 2 -2 -9 -12 -15 -11 -17 3 -17
20 0 21 20 1 46 -14 18 -14 18 -15 -4z"/>
<path d="M3293 4650 c-13 -5 -23 -12 -23 -14 0 -3 7 -3 15 0 9 4 15 0 15 -10
0 -19 16 -21 26 -4 5 7 3 8 -6 3 -10 -6 -12 -3 -8 13 4 12 5 22 5 21 -1 0 -12
-4 -24 -9z"/>
<path d="M1850 4590 c-11 -7 -11 -13 -2 -32 7 -13 11 -16 8 -7 -2 9 1 22 7 28
14 14 5 22 -13 11z"/>
<path d="M1862 4391 c2 -17 1 -28 -3 -25 -4 2 -10 0 -13 -5 -3 -5 3 -11 14
-14 15 -4 20 0 20 16 0 16 3 18 9 9 7 -11 9 -11 14 2 4 9 1 15 -6 13 -7 -1
-11 6 -9 16 2 10 -3 17 -14 17 -12 0 -15 -7 -12 -29z"/>
<path d="M1990 4400 c-13 -8 -12 -10 3 -10 9 0 17 5 17 10 0 12 -1 12 -20 0z"/>
<path d="M1820 4380 c-9 -6 -10 -10 -3 -10 6 0 15 5 18 10 8 12 4 12 -15 0z"/>
<path d="M1930 4350 c0 -5 4 -10 9 -10 6 0 13 5 16 10 3 6 -1 10 -9 10 -9 0
-16 -4 -16 -10z"/>
<path d="M1830 4319 c0 -5 5 -7 10 -4 6 3 10 8 10 11 0 2 -4 4 -10 4 -5 0 -10
-5 -10 -11z"/>
<path d="M3055 4320 c3 -5 8 -10 11 -10 2 0 4 5 4 10 0 6 -5 10 -11 10 -5 0
-7 -4 -4 -10z"/>
<path d="M1946 4185 c-3 -9 -6 -22 -5 -28 0 -7 5 -1 10 12 5 13 8 26 5 28 -2
2 -6 -3 -10 -12z"/>
<path d="M3390 3829 c0 -5 5 -7 10 -4 6 3 10 8 10 11 0 2 -4 4 -10 4 -5 0 -10
-5 -10 -11z"/>
<path d="M1420 3652 c-46 -32 -45 -97 5 -160 19 -25 35 -52 35 -59 0 -8 12
-35 26 -60 41 -68 51 -33 17 57 -4 8 -5 18 -5 23 1 4 -2 7 -7 7 -7 0 -12 12
-26 78 -2 6 1 12 6 12 5 0 9 5 9 11 0 5 -5 7 -10 4 -17 -11 0 48 21 71 11 11
19 23 19 27 0 14 -65 5 -90 -11z"/>
<path d="M2515 3661 c-3 -2 -5 -10 -5 -17 0 -19 46 -12 47 8 1 11 -5 16 -18
15 -11 -1 -22 -3 -24 -6z"/>
<path d="M2411 3644 c0 -11 3 -14 6 -6 3 7 2 16 -1 19 -3 4 -6 -2 -5 -13z"/>
<path d="M2518 3608 c5 -5 16 -8 23 -6 8 3 3 7 -10 11 -17 4 -21 3 -13 -5z"/>
<path d="M2621 3604 c0 -11 3 -14 6 -6 3 7 2 16 -1 19 -3 4 -6 -2 -5 -13z"/>
<path d="M2736 3584 c-5 -14 -4 -15 9 -4 17 14 19 20 6 20 -5 0 -12 -7 -15
-16z"/>
<path d="M2556 3573 c-6 -14 -5 -15 5 -6 7 7 10 15 7 18 -3 3 -9 -2 -12 -12z"/>
<path d="M2634 3577 c-4 -6 -4 -9 1 -5 4 4 14 3 22 -4 7 -6 15 -9 18 -7 2 3
-4 10 -15 17 -15 9 -21 9 -26 -1z"/>
<path d="M1705 3440 c-28 -44 -31 -55 -13 -44 6 4 8 3 4 -4 -3 -6 0 -29 8 -53
16 -44 13 -59 -16 -101 -11 -16 -16 -28 -11 -28 4 0 -5 -9 -22 -20 -16 -11
-24 -20 -17 -20 6 0 12 -7 12 -15 0 -8 7 -15 15 -15 8 0 15 -5 15 -11 0 -8 17
-10 50 -7 30 3 50 1 50 -5 0 -6 3 -8 6 -5 3 4 -2 18 -11 32 -23 35 -13 125 22
204 13 30 12 35 -13 82 -15 28 -33 50 -40 50 -8 0 -25 -18 -39 -40z"/>
<path d="M1800 3071 c0 -6 4 -13 10 -16 6 -3 7 1 4 9 -7 18 -14 21 -14 7z"/>
<path d="M1876 2775 c-3 -9 -20 -22 -38 -30 -21 -9 -26 -14 -15 -15 26 0 77
31 77 47 0 18 -17 16 -24 -2z"/>
<path d="M2690 2641 c0 -6 4 -13 10 -16 6 -3 7 1 4 9 -7 18 -14 21 -14 7z"/>
<path d="M2653 2462 c-14 -2 -20 -8 -16 -18 3 -7 9 -11 14 -8 5 3 9 0 9 -7 0
-10 3 -10 11 -2 17 17 6 38 -18 35z"/>
<path d="M2507 2413 c-4 -3 -7 -11 -7 -17 0 -6 5 -5 12 2 6 6 9 14 7 17 -3 3
-9 2 -12 -2z"/>
<path d="M2070 2360 c0 -6 7 -10 15 -10 8 0 15 2 15 4 0 2 -7 6 -15 10 -8 3
-15 1 -15 -4z"/>
<path d="M2100 2300 c0 -5 5 -10 11 -10 5 0 7 5 4 10 -3 6 -8 10 -11 10 -2 0
-4 -4 -4 -10z"/>
<path d="M2153 2240 c-1 -16 4 -20 28 -20 21 0 29 5 29 18 0 14 -2 14 -9 3 -8
-12 -12 -12 -26 2 -21 21 -20 21 -22 -3z"/>
<path d="M2640 2245 c0 -8 5 -15 10 -15 6 0 10 -6 10 -14 0 -10 7 -12 23 -8
16 5 18 7 6 10 -11 2 -15 10 -12 23 4 14 0 19 -16 19 -12 0 -21 -6 -21 -15z"/>
<path d="M2392 2238 c-17 -17 -15 -24 10 -25 16 -2 19 0 9 6 -7 5 -10 14 -7
20 9 15 3 14 -12 -1z"/>
<path d="M2227 2219 c4 -13 8 -18 11 -10 2 7 -1 18 -6 23 -8 8 -9 4 -5 -13z"/>
<path d="M2560 2216 c0 -9 5 -16 10 -16 6 0 10 4 10 9 0 6 -4 13 -10 16 -5 3
-10 -1 -10 -9z"/>
<path d="M2367 2160 c3 -11 9 -17 14 -14 14 8 10 34 -5 34 -9 0 -12 -7 -9 -20z"/>
<path d="M2022 1970 c0 -14 2 -19 5 -12 2 6 2 18 0 25 -3 6 -5 1 -5 -13z"/>
<path d="M2260 1925 c0 -21 17 -45 32 -45 14 0 9 17 -12 41 -19 23 -19 23 -20
4z"/>
<path d="M2100 1780 c35 -24 54 -31 30 -11 -14 11 -29 21 -35 21 -5 0 -3 -5 5
-10z"/>
<path d="M2164 1741 c4 -6 16 -16 28 -22 15 -8 18 -8 14 0 -4 6 -16 16 -28 22
-15 8 -18 8 -14 0z"/>
<path d="M2100 1736 c0 -3 9 -10 20 -16 11 -6 20 -8 20 -6 0 3 -9 10 -20 16
-11 6 -20 8 -20 6z"/>
<path d="M2223 1704 c5 -5 71 -52 147 -104 76 -52 208 -146 293 -207 146 -106
199 -139 149 -93 -12 11 -26 20 -32 20 -5 0 -10 5 -10 10 0 6 -6 10 -14 10 -8
0 -16 3 -18 8 -1 4 -33 29 -70 55 -36 26 -73 54 -82 62 -8 8 -19 15 -24 15 -6
0 -12 4 -14 8 -4 11 -217 156 -318 216 -9 5 -12 5 -7 0z"/>
<path d="M2151 1696 c13 -11 99 -57 99 -53 0 6 -86 57 -96 57 -4 0 -5 -2 -3
-4z"/>
<path d="M2034 1681 c7 -11 46 -35 46 -28 0 3 -12 12 -26 22 -15 9 -23 12 -20
6z"/>
<path d="M1887 1669 c7 -7 15 -10 18 -7 3 3 -2 9 -12 12 -14 6 -15 5 -6 -5z"/>
<path d="M1967 1669 c7 -7 15 -10 18 -7 3 3 -2 9 -12 12 -14 6 -15 5 -6 -5z"/>
<path d="M2127 1669 c12 -15 73 -53 73 -46 0 2 -19 17 -42 32 -24 16 -38 22
-31 14z"/>
<path d="M2090 1641 c0 -5 13 -14 30 -21 16 -7 35 -18 41 -26 6 -8 16 -14 22
-14 10 0 -19 24 -65 53 -16 10 -28 13 -28 8z"/>
<path d="M2290 1610 c0 -5 5 -10 11 -10 5 0 7 5 4 10 -3 6 -8 10 -11 10 -2 0
-4 -4 -4 -10z"/>
<path d="M2085 1595 c11 -9 29 -21 40 -26 l20 -10 -20 16 c-11 9 -29 21 -40
26 l-20 10 20 -16z"/>
<path d="M1930 1596 c0 -2 16 -13 36 -25 19 -12 32 -16 29 -11 -7 11 -65 43
-65 36z"/>
<path d="M2256 1583 c12 -10 88 -63 169 -118 82 -55 153 -104 159 -110 7 -5
19 -14 28 -20 9 -5 50 -34 91 -62 42 -29 83 -56 94 -59 26 -9 -149 115 -357
253 -51 35 -101 69 -110 77 -8 7 -33 23 -55 35 -29 17 -34 18 -19 4z"/>
<path d="M2210 1560 c8 -5 20 -10 25 -10 6 0 3 5 -5 10 -8 5 -19 10 -25 10 -5
0 -3 -5 5 -10z"/>
<path d="M2390 1545 c0 -2 21 -19 48 -36 26 -18 49 -36 50 -41 2 -4 10 -8 17
-8 7 0 15 -4 17 -8 3 -7 220 -166 256 -187 9 -5 38 -25 64 -42 26 -18 50 -33
53 -33 10 0 -45 43 -115 90 -36 24 -67 46 -70 49 -3 3 -12 11 -21 16 -33 20
-144 99 -149 105 -8 10 -150 100 -150 95z"/>
<path d="M2180 1530 c8 -6 24 -15 35 -21 16 -8 15 -6 -4 10 -13 12 -28 21 -35
21 -6 0 -4 -5 4 -10z"/>
<path d="M2262 1526 c8 -7 52 -37 98 -66 47 -29 88 -58 92 -64 4 -6 10 -8 13
-4 4 4 -41 38 -100 77 -105 70 -129 84 -103 57z"/>
<path d="M2089 1491 c13 -12 28 -21 34 -21 12 0 11 0 -28 24 l-30 17 24 -20z"/>
<path d="M2000 1496 c0 -2 7 -7 16 -10 8 -3 12 -2 9 4 -6 10 -25 14 -25 6z"/>
<path d="M2282 1464 c10 -10 20 -16 22 -13 3 3 -5 11 -17 18 -21 13 -21 12 -5
-5z"/>
<path d="M2057 1459 c7 -7 15 -10 18 -7 3 3 -2 9 -12 12 -14 6 -15 5 -6 -5z"/>
<path d="M1780 1441 c0 -5 7 -12 16 -15 14 -5 15 -4 4 9 -14 17 -20 19 -20 6z"/>
<path d="M1934 1441 c7 -11 46 -35 46 -28 0 3 -12 12 -26 22 -15 9 -23 12 -20
6z"/>
<path d="M2170 1435 c7 -8 17 -15 22 -15 5 0 3 7 -6 15 -8 8 -18 15 -22 15 -3
0 -1 -7 6 -15z"/>
<path d="M2320 1442 c0 -4 9 -13 20 -20 11 -7 20 -9 20 -4 0 4 -9 13 -20 20
-11 7 -20 9 -20 4z"/>
<path d="M2020 1437 c0 -8 92 -69 97 -64 2 2 -8 12 -22 21 -14 9 -36 23 -50
32 -14 9 -25 14 -25 11z"/>
<path d="M2090 1436 c0 -2 7 -7 16 -10 8 -3 12 -2 9 4 -6 10 -25 14 -25 6z"/>
<path d="M2260 1428 c21 -19 70 -48 70 -40 0 5 -12 15 -27 23 -36 17 -49 23
-43 17z"/>
<path d="M2220 1400 c8 -6 24 -15 35 -21 16 -8 15 -6 -4 10 -13 12 -28 21 -35
21 -6 0 -4 -5 4 -10z"/>
<path d="M2371 1407 c2 -1 13 -9 24 -17 19 -14 19 -14 6 3 -7 9 -18 17 -24 17
-6 0 -8 -1 -6 -3z"/>
<path d="M2480 1383 c0 -9 90 -66 95 -61 2 2 -19 18 -46 36 -27 18 -49 29 -49
25z"/>
<path d="M2420 1370 c0 -5 5 -10 10 -10 6 0 10 5 10 10 0 6 -4 10 -10 10 -5 0
-10 -4 -10 -10z"/>
<path d="M2285 1360 c3 -5 8 -10 11 -10 2 0 4 5 4 10 0 6 -5 10 -11 10 -5 0
-7 -4 -4 -10z"/>
<path d="M1901 1357 c2 -1 13 -9 24 -17 19 -14 19 -14 6 3 -7 9 -18 17 -24 17
-6 0 -8 -1 -6 -3z"/>
<path d="M2226 1346 c10 -8 21 -12 24 -10 5 6 -21 24 -34 24 -6 0 -1 -6 10
-14z"/>
<path d="M2382 1344 c10 -10 20 -15 24 -12 3 4 -5 12 -18 18 -22 12 -22 12 -6
-6z"/>
<path d="M2006 1336 c10 -8 21 -12 24 -10 5 6 -21 24 -34 24 -6 0 -1 -6 10
-14z"/>
<path d="M2310 1340 c0 -5 5 -10 11 -10 5 0 7 5 4 10 -3 6 -8 10 -11 10 -2 0
-4 -4 -4 -10z"/>
<path d="M1957 1319 c7 -7 15 -10 18 -7 3 3 -2 9 -12 12 -14 6 -15 5 -6 -5z"/>
<path d="M2445 1306 c17 -14 35 -26 40 -26 11 1 -20 27 -50 41 -11 6 -6 -1 10
-15z"/>
<path d="M2500 1320 c0 -5 5 -10 11 -10 5 0 7 5 4 10 -3 6 -8 10 -11 10 -2 0
-4 -4 -4 -10z"/>
<path d="M2280 1310 c0 -5 5 -10 11 -10 5 0 7 5 4 10 -3 6 -8 10 -11 10 -2 0
-4 -4 -4 -10z"/>
<path d="M2360 1313 c0 -8 61 -46 66 -41 1 2 -13 13 -32 26 -19 12 -34 19 -34
15z"/>
<path d="M1910 1300 c35 -24 54 -31 30 -11 -14 11 -29 21 -35 21 -5 0 -3 -5 5
-10z"/>
<path d="M1990 1302 c0 -4 10 -13 23 -21 22 -14 22 -14 3 8 -20 22 -26 25 -26
13z"/>
<path d="M2530 1303 c0 -5 16 -18 35 -31 19 -12 35 -19 35 -15 0 5 -16 18 -35
31 -19 12 -35 19 -35 15z"/>
<path d="M2235 1290 c3 -5 8 -10 11 -10 2 0 4 5 4 10 0 6 -5 10 -11 10 -5 0
-7 -4 -4 -10z"/>
<path d="M2620 1294 c0 -10 28 -34 39 -34 6 0 11 -4 11 -10 0 -5 5 -10 10 -10
19 0 9 15 -25 37 -19 12 -35 20 -35 17z"/>
<path d="M2180 1273 c1 -9 140 -96 140 -88 0 3 -26 22 -57 42 -32 21 -59 41
-61 46 -2 4 -8 7 -13 7 -5 0 -9 -3 -9 -7z"/>
<path d="M2500 1272 c0 -4 9 -13 20 -20 11 -7 20 -9 20 -4 0 4 -9 13 -20 20
-11 7 -20 9 -20 4z"/>
<path d="M2840 1273 c0 -7 101 -82 122 -91 4 -2 8 1 8 7 0 6 -6 11 -13 11 -7
0 -22 8 -33 18 -33 30 -84 64 -84 55z"/>
<path d="M1810 1267 c0 -2 19 -17 43 -32 23 -16 37 -22 30 -14 -12 15 -73 53
-73 46z"/>
<path d="M1970 1263 c0 -5 14 -17 30 -26 17 -10 30 -16 30 -13 0 2 -13 14 -30
26 -16 12 -30 18 -30 13z"/>
<path d="M2040 1262 c0 -4 14 -15 30 -24 17 -9 30 -14 30 -10 0 4 -14 15 -30
24 -17 9 -30 14 -30 10z"/>
<path d="M2360 1260 c0 -5 5 -10 11 -10 5 0 7 5 4 10 -3 6 -8 10 -11 10 -2 0
-4 -4 -4 -10z"/>
<path d="M2296 1246 c10 -8 21 -12 24 -10 5 6 -21 24 -34 24 -6 0 -1 -6 10
-14z"/>
<path d="M1536 1237 c6 -17 62 -48 69 -37 3 4 -13 17 -35 29 -22 11 -37 15
-34 8z"/>
<path d="M2615 1240 c3 -5 8 -10 11 -10 2 0 4 5 4 10 0 6 -5 10 -11 10 -5 0
-7 -4 -4 -10z"/>
<path d="M2485 1224 c9 -9 19 -13 23 -10 3 4 0 11 -8 16 -24 15 -33 11 -15 -6z"/>
<path d="M2550 1235 c0 -7 151 -107 156 -103 5 6 -112 88 -126 88 -5 0 -10 5
-10 10 0 6 -4 10 -10 10 -5 0 -10 -2 -10 -5z"/>
<path d="M2700 1232 c0 -8 100 -75 100 -66 0 9 -23 29 -62 51 -21 12 -38 19
-38 15z"/>
<path d="M1800 1226 c0 -2 8 -10 18 -17 15 -13 16 -12 3 4 -13 16 -21 21 -21
13z"/>
<path d="M1950 1221 c0 -9 30 -24 36 -18 2 1 -6 8 -16 15 -11 7 -20 8 -20 3z"/>
<path d="M2180 1221 c0 -9 30 -24 36 -18 2 1 -6 8 -16 15 -11 7 -20 8 -20 3z"/>
<path d="M2415 1220 c3 -5 8 -10 11 -10 2 0 4 5 4 10 0 6 -5 10 -11 10 -5 0
-7 -4 -4 -10z"/>
<path d="M2640 1225 c0 -7 121 -87 126 -82 4 4 -109 87 -120 87 -3 0 -6 -2 -6
-5z"/>
<path d="M1912 1194 c10 -10 20 -16 22 -13 3 3 -5 11 -17 18 -21 13 -21 12 -5
-5z"/>
<path d="M2130 1202 c0 -4 20 -19 45 -34 25 -15 45 -24 45 -20 0 4 -20 19 -45
34 -25 15 -45 24 -45 20z"/>
<path d="M2525 1200 c3 -5 8 -10 11 -10 2 0 4 5 4 10 0 6 -5 10 -11 10 -5 0
-7 -4 -4 -10z"/>
<path d="M2061 1197 c2 -1 13 -9 24 -17 19 -14 19 -14 6 3 -7 9 -18 17 -24 17
-6 0 -8 -1 -6 -3z"/>
<path d="M2246 1176 c10 -8 21 -12 24 -10 5 6 -21 24 -34 24 -6 0 -1 -6 10
-14z"/>
<path d="M2560 1175 c7 -8 17 -15 22 -15 5 0 18 -9 30 -20 12 -11 27 -20 32
-20 15 0 -46 49 -61 50 -7 0 -13 5 -13 10 0 6 -5 10 -11 10 -8 0 -8 -5 1 -15z"/>
<path d="M1652 1160 c0 -14 2 -19 5 -12 2 6 2 18 0 25 -3 6 -5 1 -5 -13z"/>
<path d="M1876 1166 c10 -8 21 -12 24 -10 5 6 -21 24 -34 24 -6 0 -1 -6 10
-14z"/>
<path d="M2330 1170 c0 -5 5 -10 10 -10 6 0 10 5 10 10 0 6 -4 10 -10 10 -5 0
-10 -4 -10 -10z"/>
<path d="M2415 1170 c3 -5 8 -10 11 -10 2 0 4 5 4 10 0 6 -5 10 -11 10 -5 0
-7 -4 -4 -10z"/>
<path d="M2490 1170 c0 -5 5 -10 10 -10 6 0 10 5 10 10 0 6 -4 10 -10 10 -5 0
-10 -4 -10 -10z"/>
<path d="M1960 1160 c35 -24 54 -31 30 -11 -14 11 -29 21 -35 21 -5 0 -3 -5 5
-10z"/>
<path d="M2372 1144 c10 -10 20 -16 22 -13 3 3 -5 11 -17 18 -21 13 -21 12 -5
-5z"/>
<path d="M2440 1151 c0 -5 7 -12 16 -15 24 -9 27 -7 10 9 -17 17 -26 19 -26 6z"/>
<path d="M2070 1141 c0 -5 7 -12 16 -15 14 -5 15 -4 4 9 -14 17 -20 19 -20 6z"/>
<path d="M2550 1135 c0 -2 20 -18 45 -35 25 -17 45 -27 45 -23 0 5 -20 20 -45
35 -25 15 -45 26 -45 23z"/>
<path d="M1747 1123 c-4 -3 -7 -11 -7 -17 0 -6 5 -5 12 2 6 6 9 14 7 17 -3 3
-9 2 -12 -2z"/>
<path d="M1940 1127 c0 -6 86 -68 110 -81 8 -4 -1 6 -20 22 -37 32 -90 66 -90
59z"/>
<path d="M2020 1125 c0 -2 24 -22 53 -43 61 -45 77 -55 77 -48 0 2 -29 25 -65
50 -36 25 -65 43 -65 41z"/>
<path d="M2170 1126 c0 -2 8 -10 18 -17 15 -13 16 -12 3 4 -13 16 -21 21 -21
13z"/>
<path d="M2410 1120 c0 -5 5 -10 11 -10 5 0 7 5 4 10 -3 6 -8 10 -11 10 -2 0
-4 -4 -4 -10z"/>
<path d="M2272 1104 c10 -10 20 -15 24 -12 3 4 -5 12 -18 18 -22 12 -22 12 -6
-6z"/>
<path d="M2506 1105 c10 -8 24 -14 29 -14 6 0 1 6 -9 14 -11 8 -24 15 -30 15
-5 0 -1 -7 10 -15z"/>
<path d="M2126 1096 c10 -8 21 -12 24 -10 5 6 -21 24 -34 24 -6 0 -1 -6 10
-14z"/>
<path d="M2360 1103 c0 -5 16 -18 35 -31 19 -12 35 -19 35 -15 0 5 -16 18 -35
31 -19 12 -35 19 -35 15z"/>
<path d="M2440 1103 c0 -5 16 -18 35 -31 19 -12 35 -19 35 -15 0 5 -16 18 -35
31 -19 12 -35 19 -35 15z"/>
<path d="M2244 1071 c20 -22 26 -25 26 -13 0 4 -10 13 -22 21 -23 14 -23 14
-4 -8z"/>
<path d="M2550 1085 c0 -10 41 -45 52 -45 10 0 -3 14 -35 39 -9 7 -17 10 -17
6z"/>
<path d="M1626 1064 c-4 -9 -4 -19 -1 -22 2 -3 7 3 11 12 4 9 4 19 1 22 -2 3
-7 -3 -11 -12z"/>
<path d="M2161 1077 c2 -1 13 -9 24 -17 19 -14 19 -14 6 3 -7 9 -18 17 -24 17
-6 0 -8 -1 -6 -3z"/>
<path d="M1667 1050 c-3 -11 -1 -23 4 -26 5 -3 9 6 9 20 0 31 -6 34 -13 6z"/>
<path d="M1714 1055 c-16 -12 -17 -14 -3 -15 9 0 19 7 23 15 7 19 5 19 -20 0z"/>
<path d="M2655 1060 c3 -5 8 -10 11 -10 2 0 4 5 4 10 0 6 -5 10 -11 10 -5 0
-7 -4 -4 -10z"/>
<path d="M2210 1047 c0 -9 72 -57 85 -57 5 0 1 6 -10 13 -50 35 -75 49 -75 44z"/>
<path d="M2445 1040 c3 -5 8 -10 11 -10 2 0 4 5 4 10 0 6 -5 10 -11 10 -5 0
-7 -4 -4 -10z"/>
<path d="M1555 1030 c-3 -5 -2 -10 4 -10 5 0 13 5 16 10 3 6 2 10 -4 10 -5 0
-13 -4 -16 -10z"/>
<path d="M1997 1029 c7 -7 15 -10 18 -7 3 3 -2 9 -12 12 -14 6 -15 5 -6 -5z"/>
<path d="M2185 1006 c17 -14 35 -25 40 -25 11 0 -20 25 -50 41 -11 5 -6 -2 10
-16z"/>
<path d="M2494 1009 c14 -11 32 -18 39 -16 9 4 9 6 -1 6 -7 1 -20 8 -28 16 -9
8 -20 15 -26 15 -6 0 1 -9 16 -21z"/>
<path d="M2335 1010 c3 -5 8 -10 11 -10 2 0 4 5 4 10 0 6 -5 10 -11 10 -5 0
-7 -4 -4 -10z"/>
<path d="M1536 1003 c-3 -3 2 -12 12 -19 16 -12 16 -13 0 -14 -9 0 -20 5 -23
10 -11 18 -33 10 -37 -14 -5 -23 17 -45 30 -31 3 3 0 5 -6 5 -7 0 -12 7 -12
15 0 8 4 15 9 15 12 0 80 -38 104 -58 11 -10 17 -11 17 -4 0 7 -5 12 -12 12
-9 0 -9 3 -1 11 9 9 18 5 36 -15 13 -14 29 -26 36 -26 6 0 3 8 -6 18 -10 10
-29 34 -43 55 -14 20 -31 39 -37 42 -15 5 -18 -21 -3 -30 6 -3 10 -11 10 -17
0 -7 -9 -3 -20 8 -33 33 -48 43 -54 37z"/>
<path d="M1412 980 c0 -14 2 -19 5 -12 2 6 2 18 0 25 -3 6 -5 1 -5 -13z"/>
<path d="M2075 976 c17 -13 32 -22 34 -20 5 5 -42 43 -54 44 -5 0 4 -11 20
-24z"/>
<path d="M2130 990 c8 -6 24 -15 35 -21 16 -8 15 -6 -4 10 -13 12 -28 21 -35
21 -6 0 -4 -5 4 -10z"/>
<path d="M2365 990 c3 -5 8 -10 11 -10 2 0 4 5 4 10 0 6 -5 10 -11 10 -5 0 -7
-4 -4 -10z"/>
<path d="M2440 996 c0 -2 12 -12 28 -21 l27 -18 -19 21 c-17 20 -36 29 -36 18z"/>
<path d="M1366 963 c-6 -14 -5 -15 5 -6 7 7 10 15 7 18 -3 3 -9 -2 -12 -12z"/>
<path d="M1893 955 c12 -25 27 -33 27 -14 0 10 -24 39 -33 39 -3 0 0 -11 6
-25z"/>
<path d="M2395 970 c3 -5 8 -10 11 -10 2 0 4 5 4 10 0 6 -5 10 -11 10 -5 0 -7
-4 -4 -10z"/>
<path d="M2190 951 c0 -9 30 -24 36 -18 2 1 -6 8 -16 15 -11 7 -20 8 -20 3z"/>
<path d="M2275 946 c11 -8 25 -20 32 -26 15 -12 23 -13 23 -2 0 5 -12 15 -27
23 -42 20 -50 22 -28 5z"/>
<path d="M2340 950 c0 -5 5 -10 10 -10 6 0 10 5 10 10 0 6 -4 10 -10 10 -5 0
-10 -4 -10 -10z"/>
<path d="M2420 955 c0 -2 10 -10 23 -16 20 -11 21 -11 8 4 -13 16 -31 23 -31
12z"/>
<path d="M1281 943 c0 -6 -4 -20 -7 -30 -5 -14 -4 -15 5 -7 7 7 11 20 8 30 -3
11 -5 14 -6 7z"/>
<path d="M1361 924 c0 -11 3 -14 6 -6 3 7 2 16 -1 19 -3 4 -6 -2 -5 -13z"/>
<path d="M1400 910 c0 -16 2 -30 4 -30 2 0 6 14 8 30 3 17 1 30 -4 30 -4 0 -8
-13 -8 -30z"/>
<path d="M1965 930 c-3 -5 1 -10 10 -10 9 0 13 5 10 10 -3 6 -8 10 -10 10 -2
0 -7 -4 -10 -10z"/>
<path d="M1315 920 c-3 -5 -1 -10 4 -10 6 0 11 5 11 10 0 6 -2 10 -4 10 -3 0
-8 -4 -11 -10z"/>
<path d="M1530 926 c0 -3 23 -17 50 -32 28 -15 50 -31 50 -36 0 -4 5 -8 11 -8
6 0 30 -14 55 -31 25 -17 50 -28 57 -26 8 4 9 6 0 6 -6 1 -55 30 -108 66 -87
59 -115 74 -115 61z"/>
<path d="M1475 910 c-3 -5 -1 -10 4 -10 6 0 11 5 11 10 0 6 -2 10 -4 10 -3 0
-8 -4 -11 -10z"/>
<path d="M2405 910 c3 -5 8 -10 11 -10 2 0 4 5 4 10 0 6 -5 10 -11 10 -5 0 -7
-4 -4 -10z"/>
<path d="M2340 900 c0 -5 5 -10 11 -10 5 0 7 5 4 10 -3 6 -8 10 -11 10 -2 0
-4 -4 -4 -10z"/>
<path d="M1355 890 c-3 -5 -1 -10 4 -10 6 0 11 5 11 10 0 6 -2 10 -4 10 -3 0
-8 -4 -11 -10z"/>
<path d="M1510 890 c0 -5 5 -10 11 -10 5 0 7 5 4 10 -3 6 -8 10 -11 10 -2 0
-4 -4 -4 -10z"/>
<path d="M1310 880 c0 -5 5 -10 10 -10 6 0 10 5 10 10 0 6 -4 10 -10 10 -5 0
-10 -4 -10 -10z"/>
<path d="M2370 880 c0 -5 5 -10 10 -10 6 0 10 5 10 10 0 6 -4 10 -10 10 -5 0
-10 -4 -10 -10z"/>
<path d="M1225 870 c-3 -5 -1 -10 4 -10 6 0 11 5 11 10 0 6 -2 10 -4 10 -3 0
-8 -4 -11 -10z"/>
<path d="M1437 858 c-6 -21 15 -47 38 -47 6 -1 -1 8 -15 19 -22 17 -23 19 -7
25 20 8 23 25 3 25 -7 0 -16 -10 -19 -22z"/>
<path d="M1554 866 c11 -9 27 -16 35 -16 21 0 2 16 -29 24 -24 7 -24 6 -6 -8z"/>
<path d="M1180 859 c0 -5 5 -7 10 -4 6 3 10 8 10 11 0 2 -4 4 -10 4 -5 0 -10
-5 -10 -11z"/>
<path d="M1401 863 c-1 -6 -4 -20 -7 -30 -5 -17 -5 -17 6 0 6 10 9 23 6 30 -3
9 -5 9 -5 0z"/>
<path d="M2240 866 c0 -3 9 -10 20 -16 11 -6 20 -8 20 -6 0 3 -9 10 -20 16
-11 6 -20 8 -20 6z"/>
<path d="M1268 835 c-3 -14 -1 -25 3 -25 5 0 9 11 9 25 0 14 -2 25 -4 25 -2 0
-6 -11 -8 -25z"/>
<path d="M1310 849 c0 -5 5 -7 10 -4 6 3 10 8 10 11 0 2 -4 4 -10 4 -5 0 -10
-5 -10 -11z"/>
<path d="M1480 850 c0 -5 5 -10 10 -10 6 0 10 5 10 10 0 6 -4 10 -10 10 -5 0
-10 -4 -10 -10z"/>
<path d="M1225 840 c-3 -5 -1 -10 4 -10 6 0 11 5 11 10 0 6 -2 10 -4 10 -3 0
-8 -4 -11 -10z"/>
<path d="M1510 842 c0 -4 19 -16 43 -26 23 -11 56 -29 72 -41 43 -31 79 -49
71 -36 -16 25 -186 120 -186 103z"/>
<path d="M1605 840 c-3 -5 1 -10 10 -10 9 0 13 5 10 10 -3 6 -8 10 -10 10 -2
0 -7 -4 -10 -10z"/>
<path d="M1178 815 c-3 -14 -1 -25 3 -25 5 0 9 11 9 25 0 14 -2 25 -4 25 -2 0
-6 -11 -8 -25z"/>
<path d="M1142 810 c0 -14 2 -19 5 -12 2 6 2 18 0 25 -3 6 -5 1 -5 -13z"/>
<path d="M1640 823 c0 -4 18 -20 39 -35 43 -31 96 -54 86 -38 -3 6 -13 10 -21
10 -8 0 -14 5 -14 10 0 6 -5 10 -12 10 -6 0 -26 11 -45 26 -18 14 -33 21 -33
17z"/>
<path d="M1256 783 c-6 -14 -5 -15 5 -6 7 7 10 15 7 18 -3 3 -9 -2 -12 -12z"/>
<path d="M1296 774 c-4 -14 -5 -28 -3 -31 3 -2 8 8 11 23 4 14 5 28 3 31 -3 2
-8 -8 -11 -23z"/>
<path d="M1428 793 c7 -3 16 -2 19 1 4 3 -2 6 -13 5 -11 0 -14 -3 -6 -6z"/>
<path d="M1520 790 c0 -5 5 -10 11 -10 5 0 7 5 4 10 -3 6 -8 10 -11 10 -2 0
-4 -4 -4 -10z"/>
<path d="M1012 765 c0 -16 2 -22 5 -12 2 9 2 23 0 30 -3 6 -5 -1 -5 -18z"/>
<path d="M1377 760 c-3 -14 0 -20 11 -20 8 0 12 3 9 7 -4 3 -2 12 4 20 9 10 8
13 -4 13 -8 0 -17 -9 -20 -20z"/>
<path d="M1768 773 c7 -3 16 -2 19 1 4 3 -2 6 -13 5 -11 0 -14 -3 -6 -6z"/>
<path d="M1335 760 c-3 -5 -1 -10 4 -10 6 0 11 5 11 10 0 6 -2 10 -4 10 -3 0
-8 -4 -11 -10z"/>
<path d="M1610 741 c19 -11 39 -20 45 -21 16 0 -28 27 -55 34 -19 5 -16 2 10
-13z"/>
<path d="M1710 730 c0 -5 5 -10 11 -10 5 0 7 5 4 10 -3 6 -8 10 -11 10 -2 0
-4 -4 -4 -10z"/>
<path d="M1800 726 c0 -2 7 -9 15 -16 9 -7 15 -8 15 -2 0 5 -7 12 -15 16 -8 3
-15 4 -15 2z"/>
<path d="M1310 700 c-13 -8 -12 -10 3 -10 9 0 17 5 17 10 0 12 -1 12 -20 0z"/>
<path d="M1450 686 c0 -15 179 -205 180 -191 0 6 -16 27 -35 48 -18 20 -46 53
-61 72 -25 34 -84 83 -84 71z"/>
<path d="M1810 682 c0 -5 9 -17 20 -27 11 -10 20 -24 20 -32 0 -7 5 -13 10
-13 6 0 10 -6 10 -12 1 -17 81 -120 98 -126 19 -6 14 11 -10 38 -13 14 -30 38
-38 55 -8 16 -25 41 -37 55 -12 14 -30 35 -41 48 -20 23 -32 28 -32 14z"/>
<path d="M1551 623 c24 -32 54 -69 68 -82 14 -14 25 -32 24 -40 -1 -9 0 -11 3
-4 3 7 12 9 20 6 13 -5 13 -7 2 -14 -9 -6 -5 -9 12 -9 l25 1 -25 22 c-14 12
-41 42 -60 67 -19 25 -38 47 -42 48 -5 2 -8 8 -8 14 0 11 -40 47 -53 48 -4 0
11 -26 34 -57z"/>
<path d="M1374 646 c24 -22 34 -46 19 -46 -3 0 -19 14 -35 32 -15 17 -31 28
-35 25 -3 -4 17 -30 46 -58 29 -28 56 -48 59 -44 4 4 -1 11 -11 16 -9 6 -17
14 -17 19 0 19 21 9 49 -22 16 -18 32 -30 35 -27 7 7 -108 129 -123 129 -7 0
-1 -11 13 -24z"/>
<path d="M1426 648 c54 -61 114 -121 119 -116 7 6 -115 138 -128 138 -6 0 -2
-10 9 -22z"/>
<path d="M1314 604 c20 -20 39 -35 41 -32 7 7 -50 68 -64 68 -7 0 3 -16 23
-36z"/>
<path d="M1250 624 c0 -8 43 -43 54 -44 4 0 -2 11 -15 25 -23 24 -39 32 -39
19z"/>
<path d="M1225 600 c3 -5 8 -10 11 -10 2 0 4 5 4 10 0 6 -5 10 -11 10 -5 0 -7
-4 -4 -10z"/>
<path d="M947 521 c-4 -17 -3 -21 5 -13 5 5 8 16 6 23 -3 8 -7 3 -11 -10z"/>
<path d="M1078 533 c7 -3 16 -2 19 1 4 3 -2 6 -13 5 -11 0 -14 -3 -6 -6z"/>
<path d="M1200 520 c14 -11 30 -20 35 -20 6 0 -1 9 -15 20 -14 11 -29 20 -35
20 -5 0 1 -9 15 -20z"/>
<path d="M1250 533 c0 -8 51 -35 56 -30 2 2 -10 11 -26 21 -17 9 -30 14 -30 9z"/>
<path d="M1320 533 c0 -9 40 -36 45 -31 2 2 -8 11 -21 21 -13 10 -24 14 -24
10z"/>
<path d="M1150 506 c0 -2 7 -7 16 -10 8 -3 12 -2 9 4 -6 10 -25 14 -25 6z"/>
<path d="M1380 490 c0 -5 5 -10 11 -10 5 0 7 5 4 10 -3 6 -8 10 -11 10 -2 0
-4 -4 -4 -10z"/>
<path d="M1478 483 c7 -3 16 -2 19 1 4 3 -2 6 -13 5 -11 0 -14 -3 -6 -6z"/>
<path d="M1065 470 c3 -5 8 -10 11 -10 2 0 4 5 4 10 0 6 -5 10 -11 10 -5 0 -7
-4 -4 -10z"/>
<path d="M1410 470 c0 -5 5 -10 11 -10 5 0 7 5 4 10 -3 6 -8 10 -11 10 -2 0
-4 -4 -4 -10z"/>
<path d="M1515 460 c3 -5 8 -10 11 -10 2 0 4 5 4 10 0 6 -5 10 -11 10 -5 0 -7
-4 -4 -10z"/>
<path d="M996 445 c-3 -8 -1 -15 5 -15 6 0 17 7 25 15 14 13 13 15 -4 15 -11
0 -22 -7 -26 -15z"/>
<path d="M4700 450 c-13 -8 -12 -10 3 -10 9 0 17 5 17 10 0 12 -1 12 -20 0z"/>
<path d="M900 419 c0 -5 5 -7 10 -4 6 3 10 8 10 11 0 2 -4 4 -10 4 -5 0 -10
-5 -10 -11z"/>
<path d="M1788 420 c-1 -5 -17 -10 -35 -12 -17 -1 -30 -5 -27 -9 4 -6 46 -5
64 1 3 2 8 2 13 1 10 -1 9 17 -2 23 -5 4 -11 2 -13 -4z"/>
<path d="M1584 401 c0 -13 6 -17 19 -13 10 2 16 5 15 6 -2 1 -10 7 -18 13 -13
10 -16 8 -16 -6z"/>
<path d="M1630 412 c0 -7 5 -12 10 -12 6 0 10 -4 10 -10 0 -5 -7 -10 -15 -10
-8 0 -15 -5 -15 -10 0 -9 30 1 48 15 1 1 -7 10 -18 20 -11 10 -20 13 -20 7z"/>
<path d="M1685 400 c10 -11 20 -18 23 -16 5 6 -23 36 -34 36 -4 0 1 -9 11 -20z"/>
<path d="M1946 412 c-2 -4 -1 -14 5 -22 7 -13 9 -13 9 0 0 13 1 13 10 0 8 -13
10 -13 10 2 0 9 6 19 13 21 6 3 0 6 -15 6 -15 1 -29 -3 -32 -7z"/>
<path d="M1495 400 c-3 -6 1 -7 9 -4 18 7 21 14 7 14 -6 0 -13 -4 -16 -10z"/>
<path d="M1538 403 c7 -3 16 -2 19 1 4 3 -2 6 -13 5 -11 0 -14 -3 -6 -6z"/>
<path d="M2000 391 c0 -17 18 -21 24 -6 3 9 0 15 -9 15 -8 0 -15 -4 -15 -9z"/>
<path d="M2095 390 c-3 -5 -12 -7 -20 -3 -8 3 -15 0 -15 -6 0 -6 9 -11 20 -11
11 0 20 -6 21 -12 0 -12 17 19 18 35 1 10 -17 9 -24 -3z"/>
<path d="M1740 370 c-18 -12 -2 -12 25 0 13 6 15 9 5 9 -8 0 -22 -4 -30 -9z"/>
<path d="M1890 370 c-11 -7 -8 -8 13 -6 15 1 30 6 34 9 10 11 -30 8 -47 -3z"/>
<path d="M1960 360 c0 -5 6 -10 14 -10 8 0 18 5 21 10 3 6 -3 10 -14 10 -12 0
-21 -4 -21 -10z"/>
<path d="M1670 350 c0 -5 7 -7 15 -4 8 4 15 8 15 10 0 2 -7 4 -15 4 -8 0 -15
-4 -15 -10z"/>
<path d="M1620 339 c0 -5 5 -7 10 -4 6 3 10 8 10 11 0 2 -4 4 -10 4 -5 0 -10
-5 -10 -11z"/>
<path d="M1980 340 c-12 -8 -10 -10 8 -10 13 0 20 4 17 10 -7 12 -6 12 -25 0z"/>
<path d="M2197 343 c-10 -9 -9 -23 2 -23 5 0 11 7 15 15 5 15 -5 20 -17 8z"/>
<path d="M1220 290 c0 -5 5 -10 10 -10 6 0 10 5 10 10 0 6 -4 10 -10 10 -5 0
-10 -4 -10 -10z"/>
<path d="M1350 245 c71 -52 125 -80 64 -33 -16 12 -31 25 -34 29 -8 10 -89 59
-97 59 -4 0 26 -25 67 -55z"/>
<path d="M1400 296 c0 -3 9 -10 20 -16 11 -6 20 -8 20 -6 0 3 -9 10 -20 16
-11 6 -20 8 -20 6z"/>
<path d="M1176 275 c10 -8 24 -14 29 -14 6 0 1 6 -9 14 -11 8 -24 15 -30 15
-5 0 -1 -7 10 -15z"/>
<path d="M1250 276 c0 -5 78 -56 87 -56 9 0 -70 59 -79 60 -5 0 -8 -2 -8 -4z"/>
<path d="M1490 270 c0 -5 5 -10 10 -10 6 0 10 5 10 10 0 6 -4 10 -10 10 -5 0
-10 -4 -10 -10z"/>
<path d="M1380 266 c0 -8 112 -77 118 -72 3 3 1 6 -4 6 -5 0 -27 16 -49 35
-34 29 -65 44 -65 31z"/>
<path d="M1576 248 c16 -13 31 -26 32 -30 2 -5 8 -8 14 -8 6 0 32 -16 58 -35
26 -19 54 -35 61 -35 7 0 -9 14 -37 31 -27 17 -50 35 -52 40 -2 5 -8 9 -14 9
-5 0 -24 11 -42 25 -18 14 -36 25 -41 25 -4 0 5 -10 21 -22z"/>
<path d="M2464 263 c10 -11 37 -12 30 -2 -3 5 -12 9 -21 9 -9 0 -13 -3 -9 -7z"/>
<path d="M711 253 c-1 -6 -4 -20 -7 -30 -5 -17 -5 -17 6 0 6 10 9 23 6 30 -3
9 -5 9 -5 0z"/>
<path d="M1473 240 c14 -11 29 -20 33 -20 4 0 -1 9 -11 20 -10 11 -25 20 -33
20 -9 0 -6 -7 11 -20z"/>
<path d="M1520 253 c1 -10 50 -46 50 -37 0 6 -40 44 -47 44 -1 0 -3 -3 -3 -7z"/>
<path d="M2200 250 c-8 -5 -10 -10 -5 -10 6 0 17 5 25 10 8 5 11 10 5 10 -5 0
-17 -5 -25 -10z"/>
<path d="M2253 239 c-18 -5 -33 -11 -33 -14 0 -7 45 1 65 13 24 13 13 14 -32
1z"/>
<path d="M1668 223 c21 -20 58 -43 69 -43 9 0 -70 59 -79 60 -5 0 0 -8 10 -17z"/>
<path d="M750 220 c0 -6 7 -10 15 -10 8 0 15 2 15 4 0 2 -7 6 -15 10 -8 3 -15
1 -15 -4z"/>
<path d="M1270 226 c0 -2 8 -10 18 -17 15 -13 16 -12 3 4 -13 16 -21 21 -21
13z"/>
<path d="M2038 223 c7 -3 16 -2 19 1 4 3 -2 6 -13 5 -11 0 -14 -3 -6 -6z"/>
<path d="M1520 210 c0 -5 5 -10 11 -10 5 0 7 5 4 10 -3 6 -8 10 -11 10 -2 0
-4 -4 -4 -10z"/>
<path d="M646 195 c-3 -8 -1 -15 4 -15 6 0 10 7 10 15 0 8 -2 15 -4 15 -2 0
-6 -7 -10 -15z"/>
<path d="M596 175 c-3 -8 -1 -15 4 -15 6 0 10 7 10 15 0 8 -2 15 -4 15 -2 0
-6 -7 -10 -15z"/>
<path d="M1565 150 c3 -5 8 -10 11 -10 2 0 4 5 4 10 0 6 -5 10 -11 10 -5 0 -7
-4 -4 -10z"/>
<path d="M1681 141 c13 -11 26 -17 28 -15 5 5 -30 33 -43 34 -4 0 2 -9 15 -19z"/>
<path d="M1230 130 c0 -5 5 -10 11 -10 5 0 7 5 4 10 -3 6 -8 10 -11 10 -2 0
-4 -4 -4 -10z"/>
<path d="M670 120 c0 -5 5 -10 11 -10 5 0 7 5 4 10 -3 6 -8 10 -11 10 -2 0 -4
-4 -4 -10z"/>
<path d="M1300 125 c0 -4 7 -13 15 -22 23 -22 10 -28 -19 -9 -14 9 -29 16 -33
16 -4 0 6 -9 23 -20 28 -18 65 -19 64 -1 -1 8 -50 44 -50 36z"/>
<path d="M1405 120 c3 -5 8 -10 11 -10 2 0 4 5 4 10 0 6 -5 10 -11 10 -5 0 -7
-4 -4 -10z"/>
<path d="M1565 119 c-16 -7 -14 -8 10 -4 20 3 37 -2 53 -14 25 -22 29 -36 7
-27 -17 6 -20 -9 -4 -20 6 -3 15 -1 19 7 6 9 19 4 49 -24 23 -20 47 -37 54
-37 18 1 -104 110 -123 110 -6 0 -10 5 -10 10 0 12 -28 12 -55 -1z"/>
<path d="M1685 97 c21 -17 54 -47 72 -65 19 -17 39 -32 46 -32 13 0 -34 47
-99 98 -54 42 -71 42 -19 -1z"/>
<path d="M582 100 c0 -14 2 -19 5 -12 2 6 2 18 0 25 -3 6 -5 1 -5 -13z"/>
<path d="M1360 111 c0 -6 4 -11 8 -11 4 0 26 -17 48 -37 22 -21 51 -44 65 -51
16 -9 12 -3 -13 20 -87 79 -108 95 -108 79z"/>
<path d="M1430 101 c0 -10 102 -101 114 -101 5 0 -16 25 -48 55 -58 56 -66 62
-66 46z"/>
<path d="M1501 83 c44 -49 83 -83 96 -83 7 0 -14 25 -47 55 -63 58 -90 73 -49
28z"/>
<path d="M1545 85 c17 -13 44 -39 62 -57 18 -18 35 -29 40 -25 7 8 -20 34 -83
83 -41 32 -57 31 -19 -1z"/>
<path d="M488 60 c-2 -22 0 -40 4 -40 5 0 8 18 8 40 0 22 -2 40 -4 40 -2 0 -6
-18 -8 -40z"/>
<path d="M730 96 c0 -2 7 -7 16 -10 8 -3 12 -2 9 4 -6 10 -25 14 -25 6z"/>
<path d="M1590 90 c0 -5 5 -10 11 -10 5 0 7 5 4 10 -3 6 -8 10 -11 10 -2 0 -4
-4 -4 -10z"/>
<path d="M1185 64 c16 -8 37 -22 46 -30 8 -8 21 -14 27 -14 7 0 12 -4 12 -10
0 -5 8 -10 18 -10 14 0 12 4 -8 20 -14 11 -29 20 -35 20 -5 0 -21 9 -35 20
-14 11 -32 20 -40 20 -8 0 -2 -7 15 -16z"/>
<path d="M1360 70 c0 -6 7 -10 15 -10 8 0 15 2 15 4 0 2 -7 6 -15 10 -8 3 -15
1 -15 -4z"/>
<path d="M724 56 c11 -9 24 -16 30 -16 12 0 7 5 -24 19 -24 11 -24 11 -6 -3z"/>
<path d="M530 39 c0 -5 5 -7 10 -4 6 3 10 8 10 11 0 2 -4 4 -10 4 -5 0 -10 -5
-10 -11z"/>
<path d="M884 36 c11 -9 27 -16 35 -15 14 0 14 1 1 6 -8 3 -24 10 -35 15 -20
9 -20 9 -1 -6z"/>
<path d="M970 40 c0 -5 5 -10 10 -10 6 0 10 5 10 10 0 6 -4 10 -10 10 -5 0
-10 -4 -10 -10z"/>
<path d="M1067 39 c7 -7 15 -10 18 -7 3 3 -2 9 -12 12 -14 6 -15 5 -6 -5z"/>
<path d="M1400 40 c0 -5 5 -10 11 -10 5 0 7 5 4 10 -3 6 -8 10 -11 10 -2 0 -4
-4 -4 -10z"/>
<path d="M1650 42 c0 -11 38 -42 51 -42 6 0 1 11 -12 25 -24 25 -39 32 -39 17z"/>
<path d="M365 31 c-3 -5 -1 -12 5 -16 5 -3 10 1 10 9 0 18 -6 21 -15 7z"/>
<path d="M327 23 c-4 -3 -7 -11 -7 -17 0 -6 5 -5 12 2 6 6 9 14 7 17 -3 3 -9
2 -12 -2z"/>
<path d="M445 20 c-3 -6 1 -7 9 -4 18 7 21 14 7 14 -6 0 -13 -4 -16 -10z"/>
<path d="M810 20 c0 -5 5 -10 10 -10 6 0 10 5 10 10 0 6 -4 10 -10 10 -5 0
-10 -4 -10 -10z"/>
<path d="M1024 16 c31 -18 56 -22 41 -7 -6 5 -23 13 -40 16 l-30 7 29 -16z"/>
<path d="M1107 19 c7 -7 15 -10 18 -7 3 3 -2 9 -12 12 -14 6 -15 5 -6 -5z"/>
<path d="M1342 14 c10 -10 20 -15 24 -12 3 4 -5 12 -18 18 -22 12 -22 12 -6
-6z"/>
<path d="M285 10 c-3 -5 1 -10 10 -10 9 0 13 5 10 10 -3 6 -8 10 -10 10 -2 0
-7 -4 -10 -10z"/>
<path d="M720 9 c0 -5 5 -7 10 -4 6 3 10 8 10 11 0 2 -4 4 -10 4 -5 0 -10 -5
-10 -11z"/>
<path d="M840 10 c0 -6 7 -10 15 -10 8 0 15 2 15 4 0 2 -7 6 -15 10 -8 3 -15
1 -15 -4z"/>
<path d="M940 10 c0 -5 5 -10 10 -10 6 0 10 5 10 10 0 6 -4 10 -10 10 -5 0
-10 -4 -10 -10z"/>
</g>
</svg>
